<?xml version="1.0" encoding="utf-8"?>
<!-- Generator: Adobe Illustrator 19.2.1, SVG Export Plug-In . SVG Version: 6.00 Build 0)  -->
<svg version="1.1" id="Layer_1" xmlns="http://www.w3.org/2000/svg" xmlns:xlink="http://www.w3.org/1999/xlink" x="0px" y="0px"
	 viewBox="0 0 200 48" style="enable-background:new 0 0 200 48;" xml:space="preserve">
<style type="text/css">
	.st0{fill:#FFFFFF;}
</style>
<g id="XMLID_1_">
	<path id="XMLID_129_" class="st0" d="M27.8,13.3c0,1.8,0,3.6,0,5.5c-0.1,0-0.2,0-0.3,0c-7.2,0-14.4,0-21.6,0c-0.1,0-0.2,0-0.3,0
		c0-1.8,0-3.6,0-5.5C13,13.3,20.4,13.3,27.8,13.3z"/>
	<path id="XMLID_128_" class="st0" d="M5.6,20.7c0.1,0,0.2,0,0.3,0c7.2,0,14.4,0,21.6,0c0.1,0,0.2,0,0.3,0c0,1.8,0,3.6,0,5.5
		c-0.1,0-0.2,0-0.3,0c-7.2,0-14.4,0-21.6,0c-0.1,0-0.2,0-0.3,0C5.6,24.4,5.6,22.6,5.6,20.7z"/>
	<path id="XMLID_127_" class="st0" d="M5.6,28.2c0.1,0,0.2,0,0.3,0c7.2,0,14.4,0,21.6,0c0.1,0,0.2,0,0.3,0c0,1.8,0,3.6,0,5.4
		c-0.1,0-0.1,0-0.2,0c-7.3,0-14.6,0-21.9,0c0,0-0.1,0-0.1,0C5.6,31.9,5.6,30,5.6,28.2z"/>
	<path id="XMLID_126_" class="st0" d="M175,23.8c-2.5,0-5,0-7.5,0c-0.4,2.1-0.8,4.1-1.2,6.2c0.5,0,1,0,1.6,0c0.1,0.5,0,0.9-0.2,1.3
		c0,0.1-0.1,0.1-0.2,0.1c-1.6,0-3.3,0-4.9,0c-0.1,0-0.2,0-0.2-0.1c0-0.4,0-0.8,0.2-1.1c0.1-0.1,0.1-0.2,0.3-0.2c0.5,0,1,0,1.5,0
		c0.9-4.4,1.8-8.8,2.7-13.2c-0.5,0-1.1,0-1.6,0c0-0.5,0-0.9,0.2-1.3c0-0.1,0.1-0.1,0.2-0.1c1.7,0,3.3,0,5,0c0.1,0.5,0,0.9-0.2,1.4
		c0,0.1-0.1,0.1-0.2,0.1c-0.4,0-0.9,0-1.3,0c-0.1,0-0.2,0.1-0.2,0.1c-0.4,1.7-0.7,3.5-1.1,5.2c0.1,0,0.2,0,0.2,0c2.3,0,4.7,0,7,0
		c0.1,0,0.2,0,0.3-0.2c0.3-1.7,0.7-3.4,1-5.1c0,0,0-0.1,0-0.1c-0.5,0-1,0-1.6,0c0-0.5,0-0.9,0.2-1.3c0-0.1,0.2-0.1,0.2-0.1
		c1.3,0,2.6,0,3.9,0c0.3,0,0.7,0,1,0c0.1,0.5,0,0.9-0.2,1.4c0,0-0.1,0.1-0.2,0.1c-0.5,0-1,0-1.5,0c-0.9,4.4-1.8,8.8-2.6,13.2
		c0.5,0,0.9,0,1.3,0c0.2,0,0.3,0.1,0.3,0.3c0,0.4,0,0.7-0.2,1c0,0.1-0.1,0.1-0.2,0.1c-1.6,0-3.3,0-4.9,0c0,0-0.1,0-0.1,0
		c0-0.5,0-0.9,0.2-1.3c0-0.1,0.2-0.1,0.2-0.1c0.5,0,1,0,1.5,0C174.2,28,174.6,25.9,175,23.8z"/>
	<path id="XMLID_125_" class="st0" d="M34.2,17c-0.4,0-0.8,0-1.2,0c-0.5,0-0.5,0-0.6-0.5c0-0.3,0-0.6,0.1-0.9c0-0.1,0.1-0.1,0.2-0.1
		c0,0,0.1,0,0.1,0c3.9,0,7.7,0,11.6,0c0.1,0,0.1,0,0.2,0c0,0.1,0,0.2,0,0.2c0,1.4,0,2.8,0,4.2c0,0.2-0.1,0.2-0.2,0.3
		c-0.5,0.1-0.9,0.1-1.3,0c-0.1,0-0.2-0.1-0.2-0.2c0-0.8,0-1.7,0-2.5c0-0.1,0-0.2,0-0.3c-2.2,0-4.4,0-6.6,0c0,1.7,0,3.4,0,5.2
		c0.1,0,0.2,0,0.3,0c2,0,4.1,0,6.1,0c0.2,0,0.3,0.1,0.3,0.2c0.1,0.4,0.1,0.9,0,1.3c0,0.2-0.1,0.2-0.3,0.2c-1.4,0-2.8,0-4.2,0
		c-0.7,0-1.4,0-2.1,0c-0.1,0-0.1,0-0.2,0c0,1.9,0,3.8,0,5.7c2.3,0,4.5,0,6.8,0c0-0.1,0-0.2,0-0.3c0-0.9,0-1.7,0-2.6
		c0-0.2,0-0.2,0.2-0.2c0.5-0.1,0.9-0.1,1.4,0c0.1,0,0.1,0.1,0.1,0.2c0,1.5,0,3,0,4.5c0,0,0,0,0,0.1c-0.1,0-0.1,0-0.2,0
		c-3.9,0-7.8,0-11.7,0c-0.2,0-0.3,0-0.3-0.2c-0.1-0.4-0.1-0.8,0-1.1c0-0.1,0.1-0.2,0.2-0.2c0.4,0,0.8,0,1.2,0c0.1,0,0.1,0,0.2,0
		C34.2,25.6,34.2,21.3,34.2,17z"/>
	<path id="XMLID_124_" class="st0" d="M178.5,31.5c-0.1-0.5,0-0.9,0.2-1.3c0-0.1,0.1-0.1,0.2-0.1c0.5,0,1,0,1.5,0
		c0.9-4.4,1.8-8.8,2.7-13.2c-0.5,0-1,0-1.6,0c-0.1-0.5,0-0.9,0.2-1.3c0-0.1,0.1-0.1,0.2-0.1c1.7,0,3.4,0,5,0c0,0,0,0,0,0
		c0.1,0.5,0,0.9-0.2,1.3c0,0.1-0.1,0.1-0.2,0.1c-0.4,0-0.9,0-1.3,0c-0.1,0-0.2,0-0.2,0.2c-0.4,2-0.8,4-1.2,6c0,0,0,0.1,0,0.1
		c2.4-2.1,4.8-4.2,7.2-6.3c-0.6,0-1.2,0-1.8,0c-0.1-0.5,0-0.9,0.2-1.3c0-0.1,0.1-0.1,0.2-0.1c1.8,0,3.5,0,5.3,0
		c0,0.5,0.1,0.9-0.2,1.3c0,0.1-0.1,0.1-0.2,0.1c-0.4,0-0.8,0-1.1,0c-0.1,0-0.2,0-0.3,0.1c-1.8,1.5-3.5,3.1-5.3,4.6
		c-0.1,0.1-0.2,0.2-0.1,0.4c1.1,2.6,2.2,5.3,3.4,7.9c0.1,0.2,0.1,0.2,0.3,0.2c0.4,0,0.8,0,1.2,0c0.1,0.5,0,0.9-0.2,1.4
		c0,0-0.1,0.1-0.2,0.1c-1.7,0-3.5,0-5.2,0c-0.1,0-0.2-0.1-0.2-0.1c0-0.4,0-0.8,0.2-1.2c0.1-0.1,0.1-0.2,0.3-0.2c0.6,0,1.1,0,1.8,0
		c-1-2.4-1.9-4.7-2.9-7c-0.3,0.3-0.6,0.5-0.9,0.8c-0.6,0.5-1.1,1-1.7,1.5c-0.1,0.1-0.2,0.2-0.3,0.4c-0.3,1.4-0.6,2.8-0.8,4.2
		c0,0,0,0.1,0,0.1c0.4,0,0.8,0,1.2,0c0.1,0,0.2,0,0.3,0c0.1,0,0.1,0.1,0.1,0.1c0,0.4,0,0.8-0.2,1.2c0,0.1-0.1,0.1-0.2,0.1
		C181.9,31.5,180.2,31.5,178.5,31.5C178.5,31.5,178.5,31.5,178.5,31.5z"/>
	<path id="XMLID_121_" class="st0" d="M86.9,21.7c-0.4,0-0.9,0-1.3,0c-0.2,0-0.3-0.1-0.3-0.2c0-0.3,0-0.7,0-1c0-0.1,0.1-0.1,0.2-0.1
		c1,0,2.1,0,3.2,0c0,0.5,0,1,0,1.6c0.1-0.1,0.1-0.1,0.1-0.1c0.8-1.2,2-1.8,3.5-1.7c1.8,0.1,3.3,1.2,3.9,3c0.5,1.2,0.5,2.5,0.4,3.8
		c-0.1,1-0.3,1.9-0.8,2.8c-1,1.8-2.7,2.5-4.6,2.2c-0.7-0.1-1.4-0.5-1.9-1c-0.2-0.2-0.3-0.4-0.5-0.6c0,1.2,0,2.4,0,3.7
		c0.1,0,0.1,0,0.2,0c0.4,0,0.8,0,1.2,0c0.1,0,0.2,0,0.2,0.2c0.1,0.4,0.1,0.7,0,1.1c0,0.1-0.1,0.1-0.2,0.1c-1.6,0-3.1,0-4.7,0
		c-0.1,0-0.2,0-0.2-0.2c-0.1-0.4-0.1-0.7,0-1.1c0-0.1,0.1-0.2,0.2-0.2c0.4,0,0.9,0,1.3,0C86.9,29.8,86.9,25.8,86.9,21.7z M94.7,26
		c0-0.1,0-0.2,0-0.3c0-0.8-0.1-1.5-0.4-2.2c-0.3-0.7-0.8-1.4-1.6-1.6c-1.5-0.5-3-0.1-3.6,1.6c-0.4,1.1-0.5,2.2-0.4,3.3
		c0.1,0.8,0.3,1.6,0.8,2.3c1,1.5,3,1.7,4.2,0.4c0.3-0.3,0.5-0.8,0.7-1.2C94.6,27.5,94.7,26.7,94.7,26z"/>
	<path id="XMLID_120_" class="st0" d="M50,30.1c0.4,0,0.7,0,1.1,0c0.1,0,0.2,0,0.2,0.2c0.1,0.4,0.1,0.7,0,1.1c0,0.1-0.1,0.1-0.2,0.1
		c-1.5,0-2.9,0-4.4,0c-0.1,0-0.2-0.1-0.2-0.1c-0.1-0.4-0.1-0.7,0-1.1c0-0.1,0.1-0.2,0.2-0.2c0.4,0,0.9,0,1.3,0c0-2.8,0-5.6,0-8.4
		c-0.4,0-0.9,0-1.3,0c-0.1,0-0.2,0-0.2-0.2c-0.1-0.4-0.1-0.7,0-1.1c0-0.1,0.1-0.1,0.2-0.1c1,0,2,0,3,0c0,0.5,0,1,0,1.5c0,0,0,0,0,0
		c0-0.1,0.1-0.1,0.1-0.2c0.7-1,1.7-1.5,3-1.7c0.7-0.1,1.4,0,2,0.3c1.1,0.5,1.7,1.3,1.9,2.5c0.1,0.4,0.1,0.8,0.1,1.2
		c0,1.9,0,3.9,0,5.8c0,0.1,0,0.2,0,0.3c0.4,0,0.7,0,1.1,0c0.5,0,0.5,0,0.5,0.5c0,0.2,0,0.5-0.1,0.7c0,0.1-0.1,0.2-0.2,0.2
		c-1.4,0-2.9,0-4.3,0c-0.1,0-0.2-0.1-0.2-0.2c0-0.3,0-0.7,0-1c0-0.1,0.1-0.2,0.2-0.2c0.4,0,0.7,0,1.1,0c0-0.1,0-0.2,0-0.3
		c0-1.7,0-3.5,0-5.2c0-0.5-0.1-1-0.2-1.6c-0.2-0.8-0.8-1.3-1.6-1.4c-1.4-0.1-2.4,0.4-2.9,1.7c-0.2,0.4-0.3,0.9-0.3,1.3
		C49.9,26.5,49.9,28.3,50,30.1C49.9,30.1,49.9,30.1,50,30.1z"/>
	<path id="XMLID_119_" class="st0" d="M127.3,30.1c0.5,0,0.9,0,1.3,0c0.2,0,0.2,0.1,0.3,0.2c0.1,0.3,0.1,0.7,0,1
		c0,0.1-0.1,0.1-0.2,0.1c-1.5,0-2.9,0-4.4,0c-0.1,0-0.2,0-0.2-0.2c-0.1-0.4-0.1-0.7,0-1.1c0-0.1,0.1-0.1,0.2-0.1c0.4,0,0.8,0,1.1,0
		c0-0.1,0-0.1,0-0.1c0-1.9,0-3.8,0-5.7c0-0.4-0.1-0.8-0.2-1.2c-0.2-0.8-0.8-1.2-1.6-1.3c-1.6-0.2-2.8,0.6-3.1,2.3
		c-0.1,0.4-0.1,0.8-0.1,1.2c0,1.5,0,3.1,0,4.6c0,0.1,0,0.2,0,0.3c0.4,0,0.7,0,1.1,0c0.2,0,0.2,0,0.3,0.2c0.1,0.3,0.1,0.7,0,1
		c0,0.1-0.1,0.1-0.2,0.1c-1.5,0-2.9,0-4.4,0c-0.1,0-0.2,0-0.2-0.1c-0.1-0.4-0.1-0.7,0-1.1c0-0.1,0.1-0.2,0.2-0.2c0.4,0,0.9,0,1.3,0
		c0-2.8,0-5.6,0-8.4c-0.1,0-0.3,0-0.4,0c-0.2,0-0.5,0-0.7,0c-0.4,0-0.4,0-0.5-0.4c0-0.1,0-0.2,0-0.2c0-0.6,0.1-0.7,0.7-0.7
		c0.8,0,1.5,0,2.3,0c0.1,0,0.2,0,0.3,0c0,0.5,0,1,0,1.6c0.1-0.1,0.1-0.1,0.1-0.1c0.8-1.2,1.9-1.7,3.2-1.8c0.7,0,1.4,0,2,0.4
		c1,0.5,1.6,1.4,1.7,2.5c0.1,0.4,0.1,0.8,0.1,1.2c0,1.9,0,3.9,0,5.8C127.3,29.9,127.3,30,127.3,30.1z"/>
	<path id="XMLID_118_" class="st0" d="M149.4,21.7c-0.4,0-0.9,0-1.3,0c-0.2,0-0.2-0.1-0.3-0.2c-0.1-0.3-0.1-0.7,0-1
		c0-0.1,0.1-0.1,0.2-0.1c1.1,0,2.1,0,3.2,0c0,0,0,0,0,0c0,3.2,0,6.5,0,9.8c0.1,0,0.2,0,0.3,0c0.3,0,0.6,0,0.9,0
		c0.2,0,0.3,0.1,0.3,0.2c0.1,0.3,0.1,0.7,0,1c0,0.1-0.1,0.1-0.2,0.1c-1,0-1.9,0-2.9,0c0-0.5,0-1,0-1.5c0,0,0,0,0,0
		c0,0.1-0.1,0.1-0.1,0.2c-0.9,1.3-2.2,1.9-3.8,1.7c-0.5,0-0.9-0.2-1.4-0.3c-1-0.5-1.6-1.3-1.7-2.4c-0.1-0.5-0.1-0.9-0.1-1.4
		c0-1.9,0-3.8,0-5.6c0-0.1,0-0.2,0-0.3c-0.4,0-0.7,0-1.1,0c-0.4,0-0.4,0-0.5-0.4c0-0.1,0-0.2,0-0.3c0-0.6,0.1-0.7,0.7-0.7
		c0.9,0,1.7,0,2.6,0c0.1,0,0.2,0,0.3,0c0,0.1,0,0.2,0,0.3c0,2.3,0,4.5,0,6.8c0,0.5,0.1,1,0.2,1.5c0.2,0.9,0.9,1.3,1.9,1.3
		c1.4,0,2.4-0.8,2.7-2.3c0.1-0.5,0.2-0.9,0.2-1.4c0-1.5,0-3.1,0-4.6C149.4,21.8,149.4,21.8,149.4,21.7z"/>
	<path id="XMLID_115_" class="st0" d="M76.5,26.5c0,1.6,1,3.1,2.4,3.5c1.1,0.3,2.3,0.2,3.4-0.3c0.3-0.2,0.7-0.4,1-0.6
		c0.1,0,0.1-0.1,0.2-0.1c0,0.6,0,1.2,0,1.8c0,0,0,0.1-0.1,0.1c-2,1.1-4.1,1.3-6.2,0.3c-1.2-0.6-1.9-1.6-2.3-2.9
		c-0.5-1.7-0.5-3.5,0.1-5.2c0.8-2,2.4-3.1,4.6-3c2,0.1,3.5,1.3,4.1,3.3c0.3,1,0.4,2,0.4,3c0,0,0,0,0,0.1
		C81.6,26.5,79.1,26.5,76.5,26.5z M82.1,25.1c0-0.8-0.2-1.7-0.5-2.3c-0.8-1.5-2.8-1.5-3.7-0.7c-0.6,0.5-0.9,1.1-1.1,1.9
		c-0.1,0.4-0.1,0.7-0.2,1.1C78.4,25.1,80.2,25.1,82.1,25.1z"/>
	<path id="XMLID_112_" class="st0" d="M139.7,26.5c-2.5,0-5,0-7.5,0c0,0.7,0.2,1.3,0.5,1.8c0.7,1.3,1.9,1.9,3.4,1.9
		c1,0,1.9-0.4,2.7-0.9c0.1-0.1,0.3-0.2,0.4-0.3c0,0.1,0,0.1,0,0.1c0,0.5,0,1,0,1.6c0,0.1,0,0.2-0.1,0.2c-1.8,1-3.7,1.3-5.6,0.5
		c-1.3-0.5-2.3-1.5-2.8-2.8c-0.8-2.1-0.7-4.2,0.3-6.1c0.8-1.6,2.1-2.4,3.9-2.4c0.8,0,1.6,0.1,2.3,0.5c0.9,0.5,1.5,1.1,1.9,2
		C139.6,23.7,139.7,25.1,139.7,26.5z M137.8,25.1c0-0.7-0.1-1.4-0.4-2.1c-0.8-1.7-3-1.9-4.1-0.6c-0.4,0.4-0.7,0.9-0.8,1.5
		c-0.1,0.4-0.1,0.8-0.2,1.2C134.1,25.1,135.9,25.1,137.8,25.1z"/>
	<path id="XMLID_109_" class="st0" d="M115.1,29c0,0.6,0,1.2,0,1.8c0,0-0.1,0.1-0.1,0.1c-1.7,0.9-3.5,1.2-5.3,0.6
		c-1.6-0.5-2.7-1.7-3.2-3.3c-0.5-1.7-0.5-3.4,0.1-5.1c0.8-2.1,2.4-3.2,4.6-3.1c1.8,0.1,3.1,0.9,3.8,2.6c0.6,1.2,0.6,2.5,0.6,3.9
		c-2.5,0-5,0-7.5,0c0,0.3,0.1,0.5,0.1,0.7c0.3,1.5,1.3,2.6,2.7,2.9c1.1,0.2,2.2,0.1,3.2-0.5C114.4,29.4,114.7,29.2,115.1,29z
		 M113.6,25.1c0.1-0.8-0.2-1.9-0.7-2.6c-0.9-1.2-2.7-1.2-3.6-0.4c-0.5,0.4-0.8,1-1,1.6c-0.1,0.4-0.2,0.9-0.2,1.3
		C109.9,25.1,111.8,25.1,113.6,25.1z"/>
	<path id="XMLID_108_" class="st0" d="M62.7,16.3c0,0.7,0,1.3,0,2c0,0.7,0,1.3,0,2c0.1,0,0.2,0,0.2,0c0.7,0,1.5,0,2.2,0
		c0.2,0,0.2,0,0.3,0.2c0,0.3,0,0.6,0,1c0,0.2-0.1,0.2-0.3,0.2c-0.7,0-1.4,0-2.2,0c-0.1,0-0.2,0-0.2,0c0,0.1,0,0.1,0,0.1
		c0,2.3,0,4.6,0,6.9c0,0.2,0,0.4,0.1,0.6c0.2,0.5,0.6,0.8,1.2,0.8c0.5,0,1-0.1,1.4-0.3c0.1,0,0.1,0,0.2-0.1c0,0,0,0,0.1,0
		c0,0.5,0,0.9,0,1.4c0,0.1-0.1,0.1-0.2,0.2c-0.7,0.3-1.4,0.3-2.1,0.3c-0.6-0.1-1.2-0.2-1.6-0.6c-0.6-0.5-0.8-1.2-0.9-1.9
		c0-0.3,0-0.6,0-0.9c0-2.1,0-4.1,0-6.2c0-0.1,0-0.2,0-0.3c-0.2,0-0.3,0-0.5,0c-0.3,0-0.7,0-1,0c-0.1,0-0.2-0.1-0.2-0.1
		c-0.1-0.4-0.1-0.7,0-1.1c0-0.1,0.1-0.1,0.2-0.1c0.4,0,0.9,0,1.3,0c0.1,0,0.1,0,0.2,0c0-0.1,0-0.2,0-0.2c0-0.9,0-1.7,0-2.6
		c0-0.1,0-0.2,0.1-0.3c0.5-0.3,1.1-0.6,1.6-0.9C62.6,16.4,62.7,16.4,62.7,16.3z"/>
	<path id="XMLID_107_" class="st0" d="M70,30.1c0.5,0,0.9,0,1.4,0c0.2,0,0.3,0.1,0.3,0.2c0,0.3,0,0.7,0,1c0,0.1-0.1,0.2-0.2,0.2
		c-1.6,0-3.1,0-4.7,0c-0.1,0-0.2,0-0.2-0.2c-0.1-0.4-0.1-0.7,0-1.1c0-0.1,0.1-0.2,0.2-0.2c0.4,0,0.9,0,1.3,0c0-2.8,0-5.6,0-8.4
		c-0.1,0-0.3,0-0.4,0c-0.2,0-0.4,0-0.6,0c-0.5,0-0.5,0-0.6-0.5c0-0.1,0-0.1,0-0.2c0-0.6,0.1-0.6,0.6-0.6c0.9,0,1.7,0,2.6,0
		c0,0.7,0,1.3,0,2c0,0,0,0,0,0c0-0.1,0.1-0.1,0.1-0.2c0.7-1.2,2.2-2.2,4-1.7c0.2,0.1,0.2,0.1,0.2,0.3c-0.1,0.5-0.1,1-0.2,1.6
		c-0.1,0-0.1,0-0.1,0c-1.4-0.6-2.8-0.1-3.4,1.3c-0.3,0.6-0.4,1.3-0.4,1.9c0,1.4,0,2.9,0,4.3C70,30,70,30,70,30.1z"/>
	<path id="XMLID_106_" class="st0" d="M101.3,20.3c0,0.7,0,1.3,0,1.9c0.3-0.3,0.5-0.6,0.7-0.9c1-0.9,2.1-1.2,3.4-0.9
		c0.2,0,0.2,0.1,0.2,0.3c-0.1,0.4-0.1,0.8-0.1,1.2c0,0.1,0,0.2,0,0.3c-0.4-0.1-0.7-0.2-1.1-0.2c-1.1-0.1-1.9,0.4-2.4,1.4
		c-0.3,0.6-0.4,1.3-0.4,2c0,1.5,0,3,0,4.5c0,0,0,0.1,0,0.2c0.3,0,0.7,0,1,0c0,0,0.1,0,0.1,0c0.5,0,0.5,0,0.6,0.5c0,0.1,0,0.1,0,0.2
		c0,0.6-0.1,0.7-0.7,0.7c-1.4,0-2.8,0-4.2,0c-0.2,0-0.3-0.1-0.3-0.2c0-0.3,0-0.6,0-1c0-0.1,0.1-0.2,0.2-0.2c0.4,0,0.9,0,1.3,0
		c0-2.8,0-5.6,0-8.4c-0.1,0-0.3,0-0.4,0c-0.2,0-0.4,0-0.6,0c-0.5,0-0.5,0-0.5-0.5c0-0.2,0-0.5,0.1-0.7c0,0,0.1-0.1,0.1-0.1
		C99.3,20.3,100.3,20.3,101.3,20.3z"/>
	<path id="XMLID_105_" class="st0" d="M155.5,30.1c0-2.8,0-5.6,0-8.4c-0.4,0-0.9,0-1.3,0c-0.2,0-0.3-0.1-0.3-0.2c0-0.3,0-0.7,0-1
		c0-0.1,0.1-0.1,0.2-0.1c1,0,2,0,3,0c0,0.7,0,1.3,0,2c0,0,0,0,0,0c0,0,0.1-0.1,0.1-0.1c0.6-1,1.4-1.6,2.6-1.8c0.5-0.1,1,0,1.6,0.1
		c0.1,0,0.2,0.1,0.2,0.2c0,0.6-0.1,1.1-0.2,1.7c-0.4-0.1-0.7-0.2-1.1-0.3c-1.1-0.1-1.9,0.4-2.4,1.5c-0.3,0.6-0.4,1.3-0.4,1.9
		c0,1.5,0,3,0,4.5c0,0,0,0.1,0,0.2c0.5,0,0.9,0,1.4,0c0.2,0,0.3,0.1,0.3,0.2c0.1,0.3,0.1,0.6,0,1c0,0.1-0.1,0.2-0.2,0.2
		c-1.6,0-3.1,0-4.7,0c-0.1,0-0.2,0-0.2-0.1c-0.1-0.4-0.1-0.7,0-1.1c0-0.1,0.1-0.2,0.2-0.2C154.6,30.1,155,30.1,155.5,30.1z"/>
</g>
</svg>
