<?xml version="1.0" encoding="utf-8"?>
<!-- Generator: Adobe Illustrator 19.0.0, SVG Export Plug-In . SVG Version: 6.00 Build 0)  -->
<svg version="1.1" id="Capa_1" xmlns="http://www.w3.org/2000/svg" xmlns:xlink="http://www.w3.org/1999/xlink" x="0px" y="0px"
	 viewBox="-224 26 510 510" style="enable-background:new -224 26 510 510;" xml:space="preserve">
<style type="text/css">
	.st0{fill:#FFFFFF;}
</style>
<g>
	<g id="post-linkedin">
		<path class="st0" d="M235,26h-408c-28.1,0-51,23-51,51v408c0,28,22.9,51,51,51h408c28,0,51-23,51-51V77C286,49,263,26,235,26z
			 M-71,459.5h-76.5V230H-71V459.5z M-109.3,186.6c-25.5,0-45.9-20.4-45.9-45.9s20.4-45.9,45.9-45.9s45.9,20.4,45.9,45.9
			S-83.8,186.6-109.3,186.6z M209.5,459.5H133V324.4c0-20.4-17.9-38.3-38.3-38.3S56.5,304,56.5,324.4v135.1H-20V230h76.5v30.6
			c12.8-20.4,40.8-35.7,63.8-35.7c48.5,0,89.3,40.8,89.3,89.3V459.5z"/>
	</g>
</g>
</svg>
