<?xml version="1.0" encoding="utf-8"?>
<!-- Generator: Adobe Illustrator 19.2.1, SVG Export Plug-In . SVG Version: 6.00 Build 0)  -->
<svg version="1.1" xmlns="http://www.w3.org/2000/svg" xmlns:xlink="http://www.w3.org/1999/xlink" x="0px" y="0px"
	 viewBox="0 0 200 200" style="enable-background:new 0 0 200 200;" xml:space="preserve">
<style type="text/css">
	.st0{fill:#202020;}
</style>
<g id="text">
	<g>
		<path class="st0" d="M24.1,112.6c-2.1,0-4.1,1.7-4.1,4c0,2,2.7,3.2,5.5,4.7c2.9,1.6,5.9,3.1,5.9,6.5c0,4.6-3.4,6.9-7.8,6.9
			c-2,0-3.9-0.5-5.5-1.6c-0.6-0.4-0.9-0.9-0.9-1.4c0-0.7,0.4-1.1,1.1-1.1c0.4,0,0.7,0.1,1.1,0.4c1.2,0.8,2.8,1.2,4.2,1.2
			c2.8,0,5.1-1.2,5.1-4.3c0-1.9-2.3-3.1-4.8-4.4c-3.1-1.6-6.6-3.4-6.6-6.7c0-4.2,3.2-6.6,7.2-6.6c1.7,0,3.6,0.5,5.4,1.5
			c0.6,0.4,0.9,0.9,0.9,1.5c0,0.6-0.4,1.2-1.1,1.2c-0.4,0-0.8-0.3-1.2-0.6C27.6,113.1,25.8,112.6,24.1,112.6z"/>
		<path class="st0" d="M46.1,113h-4.7c-0.9,0-1.3-0.4-1.3-1.2c0-0.8,0.4-1.2,1.3-1.2h11.8c0.8,0,1.2,0.4,1.2,1.2
			c0,0.8-0.4,1.2-1.2,1.2h-4.7v20c0,0.9-0.4,1.3-1.2,1.3c-0.8,0-1.2-0.4-1.2-1.3V113z"/>
		<path class="st0" d="M74.3,129.5h-11l-1.3,3.6c-0.3,0.8-0.8,1.2-1.4,1.2c-0.7,0-1-0.5-1-1.1c0-0.2,0.1-0.4,0.1-0.6l7.2-20.4
			c0.4-1,1-1.4,1.9-1.4c0.9,0,1.5,0.5,1.9,1.4l7.5,20.4c0.1,0.2,0.1,0.5,0.1,0.7c0,0.6-0.4,1.1-1.1,1.1c-0.6,0-1-0.3-1.2-0.8
			L74.3,129.5z M63.9,127h9.5l-4.7-13.1L63.9,127z"/>
		<path class="st0" d="M88.1,111.9c0-0.9,0.6-1.3,1.8-1.3h7.3c4.8,0,7.3,3.3,7.3,6.6c0,2.6-1.6,5.2-4.9,6.1l4.5,8.8
			c0.2,0.4,0.3,0.8,0.3,1.1c0,0.6-0.3,1.1-1,1.1c-0.4,0-0.8-0.1-1.1-0.6l-5.1-9.8h-6.7v8.9c0,1-0.4,1.4-1.2,1.4
			c-0.8,0-1.2-0.5-1.2-1.4V111.9z M90.4,113v8.6h7.1c3.1,0,4.6-2.1,4.6-4.2c0-2.2-1.6-4.4-4.6-4.4H90.4z"/>
		<path class="st0" d="M119.4,113h-4.7c-0.9,0-1.3-0.4-1.3-1.2c0-0.8,0.4-1.2,1.3-1.2h11.8c0.8,0,1.2,0.4,1.2,1.2
			c0,0.8-0.4,1.2-1.2,1.2h-4.7v20c0,0.9-0.4,1.3-1.2,1.3c-0.8,0-1.2-0.4-1.2-1.3V113z"/>
		<path class="st0" d="M137.3,112c0-0.9,0.4-1.4,1.3-1.4c0.9,0,1.3,0.4,1.3,1.4V125c0,5.5,3.1,7.1,6.6,7.1c3.6,0,6.3-1.5,6.3-7.1
			V112c0-0.9,0.4-1.4,1.3-1.4c0.9,0,1.3,0.4,1.3,1.4v13.2c0,7.1-4.3,9.5-9.2,9.5s-8.9-2.4-8.9-9.5V112z"/>
		<path class="st0" d="M166,111.9c0-0.9,0.4-1.3,1.3-1.3h6.8c4.4,0,7.8,2.9,7.8,7.3c0,4.1-3.5,7.1-7.6,7.1h-5.9v8.1
			c0,0.8-0.4,1.2-1.2,1.2c-0.8,0-1.2-0.4-1.2-1.2V111.9z M168.3,113v9.7h5.8c2.9,0,5.3-1.9,5.3-4.8c0-3.1-2.4-4.9-5.8-4.9H168.3z"/>
		<path class="st0" d="M34,159.9c-0.9,0-1.4-0.4-1.4-1.1c0-0.8,0.5-1.2,1.5-1.2h6.9c1.9,0,2,1.4,2,2.8c0,6.1-3.7,11-9.6,11
			c-7,0-10.4-6.5-10.4-12.6c0-6.7,3.6-12.5,10.9-12.5c2.3,0,5.2,0.9,7.1,2.9c0.4,0.4,0.5,0.7,0.5,1.1c0,0.6-0.4,1.3-1.2,1.3
			c-0.4,0-0.9-0.3-1.1-0.5c-1.8-1.7-3.7-2.3-5.4-2.3c-5.4,0-8.1,4.2-8.1,9.9c0,4.8,2.6,10.1,7.9,10.1c4.5,0,7-3.9,7-8.6
			c0-0.3,0-0.4-0.1-0.5H34z"/>
		<path class="st0" d="M66.4,166.2h-11l-1.3,3.6c-0.3,0.8-0.8,1.2-1.4,1.2c-0.7,0-1-0.5-1-1.1c0-0.2,0.1-0.4,0.1-0.6l7.2-20.4
			c0.4-1,1-1.4,1.9-1.4c0.9,0,1.5,0.5,1.9,1.4l7.5,20.4c0.1,0.2,0.1,0.5,0.1,0.7c0,0.6-0.4,1.1-1.1,1.1c-0.6,0-1-0.3-1.2-0.8
			L66.4,166.2z M56,163.8h9.5l-4.7-13.1L56,163.8z"/>
		<path class="st0" d="M80.2,148.7c0-0.9,0.6-1.3,1.8-1.3h7.3c4.8,0,7.3,3.3,7.3,6.6c0,2.6-1.6,5.2-4.9,6.1l4.5,8.8
			c0.2,0.4,0.3,0.8,0.3,1.1c0,0.6-0.3,1.1-1,1.1c-0.4,0-0.8-0.1-1.1-0.6l-5.1-9.8h-6.7v8.9c0,1-0.4,1.4-1.2,1.4
			c-0.8,0-1.2-0.5-1.2-1.4V148.7z M82.5,149.8v8.6h7.1c3.1,0,4.6-2.1,4.6-4.2c0-2.2-1.6-4.4-4.6-4.4H82.5z"/>
		<path class="st0" d="M121.5,166.2h-11l-1.3,3.6c-0.3,0.8-0.8,1.2-1.4,1.2c-0.7,0-1-0.5-1-1.1c0-0.2,0.1-0.4,0.1-0.6l7.2-20.4
			c0.4-1,1-1.4,1.9-1.4c0.9,0,1.5,0.5,1.9,1.4l7.5,20.4c0.1,0.2,0.1,0.5,0.1,0.7c0,0.6-0.4,1.1-1.1,1.1c-0.6,0-1-0.3-1.2-0.8
			L121.5,166.2z M111.2,163.8h9.5l-4.7-13.1L111.2,163.8z"/>
		<path class="st0" d="M144.8,159.9c-0.9,0-1.4-0.4-1.4-1.1c0-0.8,0.5-1.2,1.5-1.2h6.9c1.9,0,2,1.4,2,2.8c0,6.1-3.7,11-9.6,11
			c-7,0-10.4-6.5-10.4-12.6c0-6.7,3.6-12.5,10.9-12.5c2.3,0,5.2,0.9,7.1,2.9c0.4,0.4,0.5,0.7,0.5,1.1c0,0.6-0.4,1.3-1.2,1.3
			c-0.4,0-0.9-0.3-1.1-0.5c-1.8-1.7-3.7-2.3-5.4-2.3c-5.4,0-8.1,4.2-8.1,9.9c0,4.8,2.6,10.1,7.9,10.1c4.5,0,7-3.9,7-8.6
			c0-0.3,0-0.4-0.1-0.5H144.8z"/>
		<path class="st0" d="M163.7,148.9c0-1,0.4-1.4,1.3-1.4h9.7c0.8,0,1.2,0.4,1.2,1.2c0,0.8-0.4,1.2-1.2,1.2h-8.7v7.9h7.2
			c0.8,0,1.2,0.4,1.2,1.2c0,0.7-0.4,1.1-1.2,1.1h-7.2v8.8h8.9c0.9,0,1.4,0.4,1.4,1.2c0,0.8-0.4,1.2-1.4,1.2h-10
			c-1.2,0-1.3-0.3-1.3-1.4V148.9z"/>
	</g>
</g>
<g id="icon">
	<g>
		<polygon class="st0" points="118.8,57.1 100.1,48.9 100.1,40.7 118.8,48.9 		"/>
		<polygon class="st0" points="81.4,57.1 100.1,48.9 100.1,40.7 81.4,48.9 		"/>
		<polygon class="st0" points="81.4,69.2 100.1,61 100.1,52.8 81.4,61 		"/>
		<polygon class="st0" points="81.4,81.3 100.1,73.1 100.1,64.8 81.4,73.1 		"/>
		<polygon class="st0" points="118.8,69.2 100.1,61 100.1,52.8 118.8,61 		"/>
		<polygon class="st0" points="118.8,81.3 100.1,73.1 100.1,64.8 118.8,73.1 		"/>
		<polygon class="st0" points="87.6,66.5 81.4,69.2 81.4,48.9 87.6,46.2 		"/>
		<polygon class="st0" points="103.2,73.1 97,73.1 97,54.1 100.1,52.8 103.2,54.1 		"/>
		<polygon class="st0" points="118.8,81.3 112.5,78.5 112.5,58.2 118.8,61 		"/>
		<polygon class="st0" points="103.2,48.9 97,48.9 97,42.1 100.1,40.7 103.2,42.1 		"/>
	</g>
	<path class="st0" d="M100.1,19.6c-22.8,0-41.3,18.5-41.3,41.3s18.5,41.3,41.3,41.3s41.3-18.5,41.3-41.3S122.9,19.6,100.1,19.6z
		 M100.1,98.6c-20.8,0-37.6-16.8-37.6-37.6s16.8-37.6,37.6-37.6s37.6,16.8,37.6,37.6S120.8,98.6,100.1,98.6z"/>
</g>
</svg>
