<?xml version="1.0" encoding="utf-8"?>
<!-- Generator: Adobe Illustrator 19.2.1, SVG Export Plug-In . SVG Version: 6.00 Build 0)  -->
<svg version="1.1" xmlns="http://www.w3.org/2000/svg" xmlns:xlink="http://www.w3.org/1999/xlink" x="0px" y="0px"
	 viewBox="0 0 980.5 103.5" style="enable-background:new 0 0 980.5 103.5;" xml:space="preserve">
<style type="text/css">
	.st0{fill:#FFFFFF;}
</style>
<g id="Layer_1">
	<path class="st0" d="M568.6,38.7h-27.5v7.2h9.6v24.9h8.3V45.9h9.6V38.7L568.6,38.7z M570.9,70.7h26v-7.2h-17.6v-6.1H595V51h-15.7
		v-5.6h17.2v-6.7h-25.5L570.9,70.7L570.9,70.7z M626.7,50.3c-0.2-7.4-7.4-11.6-14-11.6c-9.3,0-15.3,7.1-15.3,16s6,16,15.3,16
		c7.8,0,13.6-4.6,14-12.6h-8c-0.3,3.5-2.5,5.7-6.2,5.7c-5.2,0-7.1-4.6-7.1-9.1s2-9.1,7.1-9.1c3.4,0,5.8,1.6,6.2,4.7L626.7,50.3
		L626.7,50.3z M629.1,70.7h8.3V57.5h11v13.2h8.3v-32h-8.3v11.7h-11V38.7h-8.3L629.1,70.7L629.1,70.7z M660.7,70.7h3.1v-32h-3.1V70.7
		z M667.8,70.7h3.1V43.6h0.1l18.7,27.1h3.4v-32h-3.1v27.1h-0.1l-18.7-27.1h-3.4L667.8,70.7L667.8,70.7z M695.5,70.7h8.6l2-5.7h11.2
		l2,5.7h8.7l-12-32h-8.5L695.5,70.7L695.5,70.7z M711.7,47.6L711.7,47.6l3.6,11.2H708L711.7,47.6L711.7,47.6z M726.3,59.7
		c0,7.9,6.3,11,13.3,11c6.8,0,13.4-2.5,13.4-10.3c0-5.6-4.5-7.6-8.9-8.9c-4.5-1.2-8.9-1.7-8.9-4c0-2,2.2-2.6,3.9-2.6
		c2.5,0,5.1,0.9,5,3.7h8c0-6.9-6.2-9.9-12.3-9.9c-5.8,0-12.5,2.6-12.5,9.3c0,5.6,4.6,7.6,9,8.9c4.4,1.2,8.8,1.8,8.8,4.5
		c0,2.3-2.5,3.1-4.9,3.1c-3.4,0-5.6-1.2-5.8-4.8L726.3,59.7L726.3,59.7z M754.9,70.7h8.3v-32h-8.3V70.7z M765,70.7h8.6l2-5.7h11.2
		l2,5.7h8.7l-12-32h-8.5L765,70.7z M781.1,47.6L781.1,47.6l3.6,11.2h-7.3L781.1,47.6L781.1,47.6z"/>
	<path id="SVGID_1_" class="st0" d="M505.5,47.3l4,2.3c0.7,0.4,1.6-0.4,1.2-1.1l-4-6.9c-0.3-0.6-1.1-0.6-1.5,0l-26,45.1
		c-0.7,1.1-2.3,1.1-2.9,0l-8.6-14.9c-0.3-0.5-0.4-1.1-0.4-1.7V57c0-1-0.5-1.9-1.3-2.6L445.2,37c-1.2-1-0.5-3,1.1-3h35.3
		c0.6,0,1.2,0.1,1.7,0.4l8.8,5c0.4,0.2,0.5,0.7,0.3,1.1l-3.8,6.7c-0.2,0.4-0.7,0.5-1.2,0.3l-6.6-3.7c-0.5-0.3-1.1-0.4-1.7-0.4h-9.5
		c-0.8,0-1.1,0.9-0.5,1.4l6.2,5.3c0.8,0.6,1.1,1.6,1.1,2.6v16.8c0,0.9,1.2,1.2,1.7,0.4l26.4-45.7c0.6-1.1,2.3-1.1,2.9,0l27.2,47.1
		c0.9,1.5-0.8,3.2-2.3,2.3l-31.4-18.1c-0.4-0.2-0.5-0.7-0.3-1.1l3.8-6.7C504.6,47.2,505.1,47.1,505.5,47.3L505.5,47.3z"/>
</g>
<g id="Layer_2">
	<g id="XMLID_14_">
		<path id="XMLID_39_" class="st0" d="M62.1,35.5c0,3.7,0,7.5,0,11.3c-0.2,0-0.4,0-0.6,0c-14.9,0-29.8,0-44.8,0c-0.2,0-0.4,0-0.6,0
			c0-3.8,0-7.5,0-11.3C31.4,35.5,46.8,35.5,62.1,35.5z"/>
		<path id="XMLID_38_" class="st0" d="M16.1,51c0.2,0,0.4,0,0.6,0c14.9,0,29.8,0,44.8,0c0.2,0,0.4,0,0.6,0c0,3.8,0,7.5,0,11.3
			c-0.2,0-0.4,0-0.6,0c-14.9,0-29.8,0-44.8,0c-0.2,0-0.4,0-0.6,0C16.1,58.5,16.1,54.8,16.1,51z"/>
		<path id="XMLID_37_" class="st0" d="M16.1,66.5c0.2,0,0.4,0,0.6,0c14.9,0,29.8,0,44.7,0c0.2,0,0.4,0,0.7,0c0,3.8,0,7.5,0,11.3
			c-0.1,0-0.3,0-0.4,0c-15.1,0-30.2,0-45.4,0c-0.1,0-0.2,0-0.2,0C16.1,74,16.1,70.3,16.1,66.5z"/>
		<path id="XMLID_36_" class="st0" d="M367.1,57.4c-5.2,0-10.3,0-15.5,0c-0.9,4.3-1.7,8.5-2.6,12.9c1.1,0,2.2,0,3.3,0
			c0.1,1,0.1,1.9-0.4,2.8c-0.1,0.1-0.3,0.2-0.4,0.2c-3.4,0-6.7,0-10.1,0c-0.2,0-0.3-0.1-0.3-0.3c0-0.8,0-1.6,0.4-2.3
			c0.1-0.3,0.3-0.4,0.5-0.3c1,0,2,0,3,0c1.8-9.1,3.7-18.2,5.5-27.3c-1.1,0-2.2,0-3.3,0c-0.1-1-0.1-1.9,0.4-2.7
			c0.1-0.1,0.3-0.3,0.4-0.3c3.5,0,6.9,0,10.4,0c0.1,1,0.1,1.9-0.4,2.8c-0.1,0.1-0.3,0.2-0.4,0.2c-0.9,0-1.8,0-2.8,0
			c-0.1,0-0.4,0.1-0.4,0.2c-0.7,3.6-1.5,7.2-2.2,10.8c0.2,0,0.4,0,0.5,0c4.8,0,9.7,0,14.5,0c0.3,0,0.5,0,0.6-0.4
			c0.7-3.5,1.4-7,2.1-10.5c0-0.1,0-0.1,0-0.2c-1.1,0-2.1,0-3.2,0c-0.1-1-0.1-1.9,0.4-2.8c0.1-0.1,0.3-0.2,0.5-0.2c2.7,0,5.4,0,8.2,0
			c0.7,0,1.4,0,2.1,0c0.2,1,0.1,2-0.4,2.8c-0.1,0.1-0.3,0.2-0.4,0.2c-1,0-2,0-3,0c-1.8,9.1-3.6,18.2-5.5,27.3c1,0,1.9,0,2.8,0
			c0.5,0,0.6,0.1,0.6,0.6c0,0.7-0.1,1.5-0.4,2.1c-0.1,0.1-0.3,0.3-0.5,0.3c-3.4,0-6.7,0-10.1,0c-0.1,0-0.1,0-0.3,0
			c-0.1-0.9-0.1-1.8,0.4-2.7c0.1-0.1,0.3-0.3,0.5-0.3c1,0,2,0,3,0C365.4,66,366.3,61.7,367.1,57.4z"/>
		<path id="XMLID_35_" class="st0" d="M75.2,43.2c-0.8,0-1.6,0-2.5,0c-1.1,0-1.1,0-1.2-1.1c0-0.6,0.1-1.2,0.2-1.8
			c0-0.1,0.2-0.2,0.4-0.3c0,0,0.1,0,0.2,0c8,0,16,0,24,0c0.1,0,0.3,0,0.5,0c0,0.2,0,0.3,0,0.5c0,2.9,0,5.9,0,8.8
			c0,0.4-0.1,0.5-0.5,0.6c-0.9,0.2-1.9,0.2-2.8,0c-0.3-0.1-0.4-0.2-0.4-0.5c0-1.7,0-3.5,0-5.2c0-0.2,0-0.3,0-0.5
			c-4.6,0-9.2,0-13.8,0c0,3.6,0,7.1,0,10.8c0.2,0,0.4,0,0.6,0c4.2,0,8.5,0,12.7,0c0.4,0,0.5,0.1,0.6,0.5c0.2,0.9,0.2,1.8,0,2.7
			c-0.1,0.3-0.2,0.4-0.5,0.4c-2.9,0-5.7,0-8.6,0c-1.4,0-2.9,0-4.3,0c-0.1,0-0.3,0-0.5,0c0,3.9,0,7.8,0,11.7c4.7,0,9.3,0,14,0
			c0-0.2,0-0.3,0-0.5c0-1.8,0-3.5,0-5.3c0-0.3,0.1-0.4,0.4-0.5c0.9-0.2,1.9-0.2,2.8,0c0.1,0,0.3,0.2,0.3,0.3c0,3.1,0,6.3,0,9.4
			c0,0,0,0.1-0.1,0.1c-0.1,0-0.3,0-0.5,0c-8.1,0-16.2,0-24.2,0c-0.4,0-0.6-0.1-0.6-0.5c-0.1-0.8-0.2-1.6,0-2.4
			c0.1-0.3,0.2-0.4,0.5-0.4c0.9,0,1.7,0,2.6,0c0.1,0,0.3,0,0.5,0C75.2,61.1,75.2,52.2,75.2,43.2z"/>
		<path id="XMLID_34_" class="st0" d="M374.3,73.3c-0.1-1-0.1-1.9,0.4-2.8c0.1-0.1,0.3-0.2,0.4-0.2c1,0,2,0,3,0
			c1.8-9.1,3.7-18.2,5.5-27.3c-1.1,0-2.2,0-3.3,0c-0.1-1-0.1-1.9,0.4-2.8c0.1-0.1,0.2-0.2,0.3-0.2c3.5,0,7,0,10.5,0c0,0,0,0,0.1,0
			c0.1,0.9,0.1,1.9-0.4,2.7c-0.1,0.1-0.3,0.2-0.4,0.2c-0.9,0-1.8,0-2.8,0c-0.3,0-0.4,0.1-0.5,0.4c-0.8,4.2-1.7,8.3-2.5,12.5
			c0,0.1,0,0.1,0,0.3c5-4.4,9.9-8.7,15-13.1c-1.3,0-2.6,0-3.8,0c-0.1-1-0.1-1.9,0.4-2.7c0.1-0.1,0.2-0.3,0.4-0.3c3.7,0,7.3,0,11,0
			c0,0.9,0.1,1.9-0.3,2.7c-0.1,0.1-0.3,0.3-0.4,0.3c-0.8,0-1.6,0-2.4,0c-0.2,0-0.4,0.1-0.6,0.2c-3.7,3.2-7.3,6.3-10.9,9.5
			c-0.3,0.2-0.3,0.4-0.2,0.8c2.3,5.5,4.7,10.9,7,16.4c0.1,0.3,0.3,0.4,0.7,0.4c0.8,0,1.6,0,2.5,0c0.2,1,0.1,2-0.4,2.9
			c0,0.1-0.2,0.1-0.3,0.1c-3.6,0-7.2,0-10.8,0c-0.1,0-0.3-0.2-0.3-0.3c-0.1-0.8,0-1.6,0.4-2.4c0.1-0.3,0.3-0.3,0.6-0.3
			c1.2,0,2.4,0,3.7,0c-2-4.9-4-9.7-6-14.6c-0.7,0.6-1.3,1.1-1.9,1.7c-1.2,1-2.3,2-3.5,3.1c-0.3,0.2-0.5,0.5-0.5,0.9
			c-0.6,2.9-1.2,5.8-1.8,8.7c0,0.1,0,0.1,0,0.2c0.8,0,1.6,0,2.4,0c0.2,0,0.4,0,0.6,0c0.1,0,0.3,0.2,0.3,0.3c0.1,0.8,0,1.6-0.4,2.4
			c-0.1,0.1-0.3,0.3-0.4,0.3c-3.4,0-6.8,0-10.2,0C374.5,73.3,374.4,73.3,374.3,73.3z"/>
		<path id="XMLID_31_" class="st0" d="M184.4,53c-0.9,0-1.8,0-2.7,0c-0.3,0-0.5-0.1-0.5-0.4c0-0.7,0-1.4,0-2.1
			c0-0.1,0.2-0.3,0.3-0.3c2.2,0,4.3,0,6.6,0c0,1.1,0,2.1,0,3.2c0.1-0.2,0.2-0.2,0.3-0.3c1.7-2.6,4.2-3.7,7.3-3.6
			c3.7,0.2,6.8,2.4,8.2,6.1c1,2.5,1.1,5.2,0.8,7.8c-0.2,2.1-0.7,4-1.8,5.8c-2.1,3.6-5.7,5.2-9.5,4.5c-1.5-0.3-2.9-0.9-3.9-2.1
			c-0.4-0.4-0.7-0.8-1-1.3c0,2.5,0,5,0,7.6c0.1,0,0.3,0,0.5,0c0.8,0,1.7,0,2.5,0c0.3,0,0.4,0.1,0.4,0.3c0.2,0.7,0.2,1.5,0,2.2
			c-0.1,0.2-0.2,0.3-0.4,0.3c-3.2,0-6.5,0-9.7,0c-0.3,0-0.4-0.1-0.4-0.3c-0.2-0.7-0.2-1.5,0-2.2c0.1-0.2,0.2-0.3,0.4-0.3
			c0.9,0,1.8,0,2.8,0C184.4,69.8,184.4,61.4,184.4,53z M200.8,61.8c0-0.2,0-0.4,0-0.6c-0.1-1.6-0.2-3.2-0.9-4.6
			c-0.7-1.5-1.6-2.8-3.2-3.4c-3.1-1-6.2-0.1-7.5,3.3c-0.9,2.2-1,4.5-0.9,6.9c0.1,1.7,0.6,3.4,1.6,4.8c2.1,3,6.2,3.4,8.7,0.8
			c0.7-0.7,1.1-1.6,1.5-2.5C200.5,65,200.7,63.4,200.8,61.8z"/>
		<path id="XMLID_30_" class="st0" d="M108,70.5c0.8,0,1.5,0,2.3,0c0.3,0,0.4,0.1,0.5,0.4c0.2,0.7,0.2,1.5,0,2.2
			c0,0.1-0.2,0.3-0.4,0.3c-3.1,0-6.1,0-9.2,0c-0.1,0-0.3-0.2-0.4-0.3c-0.3-0.7-0.2-1.5,0-2.2c0.1-0.3,0.2-0.3,0.4-0.3
			c0.9,0,1.8,0,2.7,0c0-5.8,0-11.6,0-17.5c-0.9,0-1.8,0-2.7,0c-0.3,0-0.4-0.1-0.5-0.4c-0.2-0.7-0.2-1.5,0-2.2c0-0.1,0.2-0.3,0.3-0.3
			c2,0,4.1,0,6.2,0c0,1.1,0,2.1,0,3.2c0,0,0.1,0,0.1,0c0.1-0.1,0.2-0.2,0.3-0.4c1.5-2.2,3.6-3.2,6.1-3.4c1.4-0.1,2.9,0,4.2,0.5
			c2.3,0.9,3.6,2.8,4,5.2c0.2,0.8,0.2,1.7,0.2,2.6c0,4,0,8,0,12c0,0.2,0,0.4,0,0.7c0.8,0,1.5,0,2.2,0c1,0,1,0,1.1,1
			c0,0.5-0.1,1-0.1,1.5c0,0.3-0.2,0.3-0.4,0.3c-3,0-6,0-9,0c-0.3,0-0.5-0.1-0.5-0.4c0-0.7,0-1.4,0-2.1c0-0.3,0.2-0.4,0.5-0.4
			c0.8,0,1.5,0,2.3,0c0-0.2,0-0.4,0-0.5c0-3.6,0-7.2,0-10.8c0-1.1-0.1-2.2-0.3-3.2c-0.3-1.7-1.6-2.8-3.4-2.9c-2.9-0.3-5,0.8-6,3.4
			c-0.3,0.9-0.6,1.8-0.7,2.8c-0.1,3.7-0.1,7.4-0.1,11.1C107.9,70.3,107.9,70.4,108,70.5z"/>
		<path id="XMLID_29_" class="st0" d="M268.3,70.5c0.9,0,1.8,0,2.7,0c0.3,0,0.5,0.1,0.5,0.4c0.2,0.7,0.2,1.4,0,2.1
			c-0.1,0.2-0.2,0.3-0.4,0.3c-3,0-6.1,0-9.1,0c-0.2,0-0.3-0.1-0.4-0.3c-0.2-0.7-0.2-1.5,0-2.2c0.1-0.2,0.2-0.3,0.4-0.3
			c0.8,0,1.6,0,2.4,0c0-0.1,0-0.2,0-0.3c0-4,0-7.9,0-11.9c0-0.9-0.1-1.8-0.4-2.6c-0.4-1.6-1.6-2.5-3.3-2.7c-3.4-0.4-5.7,1.3-6.5,4.8
			c-0.2,0.8-0.3,1.7-0.3,2.5c0,3.2,0,6.4,0,9.6c0,0.2,0,0.3,0,0.5c0.8,0,1.5,0,2.3,0c0.3,0,0.5,0.1,0.5,0.4c0.2,0.7,0.2,1.4,0,2.1
			c-0.1,0.2-0.2,0.3-0.4,0.3c-3,0-6.1,0-9.1,0c-0.2,0-0.3-0.1-0.4-0.3c-0.2-0.7-0.2-1.5,0-2.2c0.1-0.3,0.2-0.4,0.5-0.4
			c0.9,0,1.8,0,2.7,0c0-5.8,0-11.6,0-17.5c-0.3,0-0.6,0-0.9,0c-0.5,0-0.9,0-1.4,0c-0.8,0-0.9,0-1-0.9c0-0.2,0-0.3,0-0.5
			c0-1.3,0.1-1.5,1.4-1.5c1.6,0,3.1,0,4.7,0c0.2,0,0.3,0,0.5,0c0,1.1,0,2.1,0,3.3c0.1-0.1,0.2-0.2,0.2-0.2c1.6-2.5,3.9-3.6,6.7-3.7
			c1.5-0.1,2.9,0.1,4.2,0.7c2.2,1,3.2,2.9,3.6,5.2c0.1,0.8,0.2,1.6,0.2,2.4c0,4,0,8.1,0,12.1C268.3,70.1,268.3,70.3,268.3,70.5z"/>
		<path id="XMLID_28_" class="st0" d="M314.1,53c-0.9,0-1.8,0-2.6,0c-0.3,0-0.5-0.1-0.6-0.4c-0.2-0.7-0.2-1.4,0.1-2.1
			c0-0.1,0.2-0.3,0.3-0.3c2.2,0,4.4,0,6.7,0c0,0,0,0,0.1,0.1c0,6.7,0,13.4,0,20.2c0.2,0,0.5,0,0.7,0c0.6,0,1.3,0,1.9,0
			c0.4,0,0.6,0.1,0.6,0.5c0.1,0.7,0.2,1.4-0.1,2.1c0,0.1-0.2,0.3-0.4,0.3c-2,0-4,0-6.1,0c0-1.1,0-2.1,0-3.2c0,0-0.1,0-0.1,0
			c-0.1,0.1-0.2,0.2-0.3,0.3c-2,2.7-4.7,3.8-7.9,3.5c-1-0.1-2-0.3-2.8-0.7c-2.2-0.9-3.2-2.8-3.6-5c-0.2-0.9-0.2-1.9-0.2-2.9
			c0-3.9,0-7.8,0-11.7c0-0.2,0-0.4,0-0.7c-0.8,0-1.5,0-2.3,0c-0.8,0-0.8,0-1-0.8c0-0.2,0-0.4,0-0.6c0-1.3,0.1-1.4,1.4-1.4
			c1.8,0,3.5,0,5.3,0c0.2,0,0.3,0,0.6,0c0,0.2,0,0.4,0,0.6c0,4.7,0,9.4,0,14.1c0,1,0.1,2.1,0.4,3c0.5,1.8,1.9,2.7,3.9,2.7
			c2.9,0.1,5-1.6,5.7-4.7c0.2-0.9,0.3-1.9,0.4-2.9c0-3.2,0-6.4,0-9.6C314.1,53.3,314.1,53.2,314.1,53z"/>
		<path id="XMLID_25_" class="st0" d="M163.1,62.9c0,3.4,2.1,6.4,5,7.3c2.4,0.7,4.7,0.4,7-0.7c0.7-0.4,1.4-0.8,2.1-1.2
			c0.1-0.1,0.3-0.1,0.4-0.2c0,1.3,0,2.5,0,3.7c0,0.1-0.1,0.2-0.2,0.3c-4.2,2.2-8.5,2.8-12.9,0.5c-2.5-1.3-4-3.4-4.8-6
			c-1.1-3.6-1-7.2,0.3-10.8c1.6-4.2,4.9-6.4,9.5-6.2c4.2,0.2,7.2,2.6,8.5,6.8c0.6,2.1,0.8,4.2,0.7,6.3c0,0,0,0.1,0,0.2
			C173.4,62.9,168.3,62.9,163.1,62.9z M174.5,60c0.1-1.6-0.4-3.4-1.1-4.7c-1.7-3.1-5.9-3.1-7.7-1.4c-1.2,1.1-2,2.4-2.3,3.9
			c-0.2,0.7-0.3,1.5-0.4,2.3C166.9,60,170.7,60,174.5,60z"/>
		<path id="XMLID_22_" class="st0" d="M294,62.9c-5.2,0-10.4,0-15.6,0c0,1.3,0.3,2.6,1,3.7c1.5,2.8,3.9,4,7,3.9
			c2.1-0.1,3.9-0.8,5.6-1.9c0.3-0.2,0.6-0.3,0.9-0.5c0,0.1,0,0.2,0,0.2c0,1.1,0,2.2,0,3.3c0,0.2-0.1,0.4-0.2,0.4
			c-3.7,2-7.6,2.6-11.6,1.1c-2.8-1-4.8-3-5.8-5.8c-1.6-4.3-1.4-8.6,0.6-12.7c1.6-3.3,4.4-4.9,8-5c1.7,0,3.3,0.1,4.8,0.9
			c1.8,0.9,3,2.4,3.9,4.2C293.9,57.2,294.1,60,294,62.9z M290,60c-0.1-1.5-0.3-3-0.9-4.3c-1.6-3.4-6.3-3.8-8.6-1.2
			c-0.8,0.9-1.4,1.9-1.7,3.1c-0.2,0.8-0.3,1.6-0.5,2.5C282.3,60,286.1,60,290,60z"/>
		<path id="XMLID_19_" class="st0" d="M242.9,68.1c0,1.2,0,2.4,0,3.6c0,0.1-0.1,0.2-0.2,0.3c-3.5,1.9-7.2,2.5-11.1,1.3
			c-3.4-1.1-5.6-3.4-6.6-6.8c-1.1-3.6-1-7.1,0.3-10.6c1.6-4.3,4.9-6.5,9.6-6.4c3.7,0.1,6.4,1.9,7.9,5.3c1.2,2.5,1.3,5.2,1.3,8
			c-5.2,0-10.4,0-15.6,0c0.1,0.6,0.1,1.1,0.2,1.6c0.6,3,2.7,5.4,5.5,5.9c2.3,0.4,4.5,0.1,6.6-1C241.5,68.9,242.2,68.5,242.9,68.1z
			 M239.9,60c0.1-1.7-0.5-4-1.5-5.3c-1.8-2.4-5.6-2.5-7.5-0.7c-1,0.9-1.7,2-2.1,3.3c-0.3,0.9-0.4,1.8-0.4,2.8
			C232.3,60,236.1,60,239.9,60z"/>
		<path id="XMLID_18_" class="st0" d="M134.4,41.9c0,1.4,0,2.8,0,4.1c0,1.4,0,2.7,0,4.1c0.2,0,0.4,0,0.5,0c1.5,0,3.1,0,4.6,0
			c0.3,0,0.5,0.1,0.5,0.4c0,0.7,0,1.3,0,2c0,0.4-0.2,0.5-0.6,0.5c-1.5,0-3,0-4.5,0c-0.2,0-0.3,0-0.5,0c0,0.1,0,0.2,0,0.3
			c0,4.8,0,9.5,0,14.3c0,0.4,0.1,0.8,0.2,1.2c0.3,1.1,1.2,1.7,2.5,1.7c1,0,2-0.1,3-0.6c0.1,0,0.2-0.1,0.3-0.1c0,0,0.1,0,0.1,0
			c0,1,0,1.9,0,2.9c0,0.1-0.2,0.3-0.4,0.4c-1.4,0.6-2.9,0.7-4.4,0.6c-1.2-0.1-2.4-0.5-3.3-1.3c-1.2-1.1-1.6-2.4-1.8-3.9
			c-0.1-0.6-0.1-1.2-0.1-1.8c0-4.3,0-8.6,0-12.9c0-0.2,0-0.4,0-0.6c-0.4,0-0.7,0-1,0c-0.7,0-1.5,0-2.2,0c-0.1,0-0.4-0.2-0.4-0.3
			c-0.2-0.7-0.3-1.5,0-2.3c0-0.1,0.3-0.3,0.4-0.3c0.9,0,1.8,0,2.7,0c0.1,0,0.3,0,0.5,0c0-0.2,0-0.3,0-0.5c0-1.8,0-3.5,0-5.3
			c0-0.2,0.1-0.4,0.3-0.5c1.1-0.6,2.3-1.2,3.4-1.8C134.2,42,134.3,41.9,134.4,41.9z"/>
		<path id="XMLID_17_" class="st0" d="M149.6,70.5c1,0,1.9,0,2.9,0c0.4,0,0.6,0.1,0.6,0.5c0,0.7,0,1.4,0,2.1c0,0.2-0.2,0.3-0.4,0.3
			c-3.2,0-6.5,0-9.7,0c-0.2,0-0.3-0.1-0.4-0.3c-0.2-0.7-0.2-1.5,0-2.2c0.1-0.3,0.2-0.4,0.5-0.3c0.9,0,1.8,0,2.7,0
			c0-5.8,0-11.6,0-17.5c-0.3,0-0.6,0-0.8,0c-0.4,0-0.8,0-1.3,0c-1.1,0-1.1,0-1.2-1.1c0-0.1,0-0.3,0-0.5c0-1.2,0.1-1.3,1.3-1.3
			c1.8,0,3.6,0,5.4,0c0,1.4,0,2.7,0,4.1c0,0,0.1,0,0.1,0c0.1-0.1,0.1-0.2,0.2-0.3c1.4-2.5,4.7-4.6,8.4-3.5c0.4,0.1,0.5,0.3,0.4,0.7
			c-0.1,1.1-0.2,2.1-0.3,3.2c-0.1,0-0.2,0-0.3-0.1c-3-1.3-5.8-0.2-7.1,2.8c-0.6,1.3-0.7,2.6-0.8,4c0,3,0,6,0,9
			C149.5,70.2,149.6,70.3,149.6,70.5z"/>
		<path id="XMLID_16_" class="st0" d="M214.3,50.2c0,1.4,0,2.7,0,4c0.5-0.7,1-1.3,1.5-1.9c2-1.9,4.4-2.6,7.1-1.8
			c0.4,0.1,0.5,0.3,0.4,0.7c-0.1,0.8-0.2,1.7-0.3,2.5c0,0.2-0.1,0.5-0.1,0.6c-0.8-0.2-1.5-0.5-2.3-0.5c-2.3-0.2-4,0.9-5,3
			c-0.6,1.3-0.9,2.7-0.9,4.1c0,3.1,0,6.2,0,9.3c0,0.1,0,0.2,0,0.3c0.7,0,1.4,0,2.1,0c0.1,0,0.2,0,0.3,0c1.1,0,1.1,0,1.2,1.1
			c0,0.1,0,0.2,0,0.4c0,1.3-0.1,1.4-1.4,1.4c-2.9,0-5.9,0-8.8,0c-0.4,0-0.6-0.1-0.6-0.5c0-0.7,0-1.3,0-2c0-0.2,0.2-0.3,0.4-0.3
			c0.9,0,1.8,0,2.8,0c0-5.8,0-11.6,0-17.5c-0.3,0-0.6,0-0.9,0c-0.4,0-0.9,0-1.3,0c-0.9,0-1.1-0.1-1.1-1.1c0-0.5,0.1-1,0.2-1.5
			c0-0.1,0.2-0.2,0.3-0.2C210.2,50.2,212.2,50.2,214.3,50.2z"/>
		<path id="XMLID_15_" class="st0" d="M326.7,70.5c0-5.8,0-11.6,0-17.5c-0.9,0-1.8,0-2.6,0c-0.4,0-0.6-0.1-0.6-0.5
			c0-0.7,0-1.4,0.1-2.1c0-0.1,0.2-0.3,0.4-0.3c2,0,4,0,6.1,0c0,1.4,0,2.7,0,4c0,0,0.1,0,0.1,0c0.1-0.1,0.1-0.2,0.2-0.3
			c1.2-2,3-3.3,5.3-3.7c1.1-0.2,2.2-0.1,3.2,0.3c0.1,0,0.3,0.2,0.3,0.3c-0.1,1.2-0.2,2.3-0.3,3.4c-0.8-0.2-1.5-0.5-2.2-0.5
			c-2.3-0.2-4,0.9-5,3c-0.6,1.3-0.9,2.6-0.9,4c0,3.1,0,6.2,0,9.3c0,0.1,0,0.2,0,0.4c0.9,0,1.9,0,2.8,0c0.4,0,0.6,0.1,0.6,0.5
			c0.1,0.7,0.1,1.3,0,2c-0.1,0.2-0.2,0.3-0.4,0.3c-3.2,0-6.5,0-9.7,0c-0.2,0-0.3-0.1-0.4-0.3c-0.2-0.7-0.2-1.5,0-2.2
			c0.1-0.3,0.2-0.4,0.5-0.4C324.9,70.5,325.8,70.5,326.7,70.5z"/>
	</g>
</g>
<g id="Layer_3">
	<g id="XMLID_3_">
		<path id="XMLID_6_" class="st0" d="M882.9,56.1c-12,0-23.6,0-35,0c-1.3,6.5,0.2,8.5,6.3,8.5c6.9,0,13.8,0,20.9,0
			c0,2.9,0,5.4,0,9.1c-9.5-0.5-19-0.7-28.4-1.8c-5.1-0.6-7.3-5.5-7.6-10.1c-0.5-7.2-0.6-14.4,0.1-21.6c0.6-6.7,4.3-10.3,11-11
			c7.4-0.7,14.9-0.8,22.4-0.2c7,0.5,10.2,4.6,10.4,11.6C883.1,45.6,882.9,50.5,882.9,56.1z M874.7,48.3c0-2.9,0-5.4,0-7.9
			c0-2.7-1.4-3.8-3.9-3.8c-6.1,0-12.1,0-18.2,0c-3.2,0-5,1.9-5.2,5c-0.2,2.2,0,4.4,0,6.7C856.6,48.3,865.3,48.3,874.7,48.3z"/>
		<path id="XMLID_5_" class="st0" d="M898.2,36.6c0-3,0-5.4,0-7.8c6.1,0,12-0.3,17.8,0.1c4.4,0.3,6.8,3.4,7.5,7.5
			c0.5,3.3,0.6,6.8,0.4,10.1c-0.4,7.1-3,9.4-10.2,9.5c-4.8,0.1-9.6,0-14.4,0c-8.5,0.1-9.3,1-8.2,10.2c10.8,0,21.6,0,32.7,0
			c0,2.4,0,4.5,0,6.8c-13.2,0-26.2,0-39.7,0c0-5.4-0.3-10.7,0.1-16c0.5-5.8,3.6-8.4,9.6-8.6c5.8-0.2,11.6,0,17.4-0.1
			c4.8,0,5.7-1,5.7-5.7c-0.1-5.3-0.7-6-5.7-6C906.9,36.6,902.6,36.6,898.2,36.6z"/>
		<path id="XMLID_4_" class="st0" d="M951.6,36.6c-9.4,0-17.7,0-26.4,0c0-2.9,0-5.4,0-8.3c10.7,0,21.3-0.2,31.9,0.1
			c4.2,0.1,5.9,3.6,3.9,7.7c-1,2.1-2.5,4.1-3.9,6c-6.1,8.5-12.6,16.7-18.2,25.6c-3.4,5.3-7.4,6.6-13.5,5.2
			C934.1,60.9,942.5,49.2,951.6,36.6z"/>
	</g>
</g>
</svg>
