<?xml version="1.0" encoding="utf-8"?>
<!-- Generator: Adobe Illustrator 19.2.1, SVG Export Plug-In . SVG Version: 6.00 Build 0)  -->
<svg version="1.1" id="Layer_1" xmlns="http://www.w3.org/2000/svg" xmlns:xlink="http://www.w3.org/1999/xlink" x="0px" y="0px"
	 viewBox="0 0 200 48" style="enable-background:new 0 0 200 48;" xml:space="preserve">
<style type="text/css">
	.st0{fill:#FFFFFF;}
</style>
<g id="XMLID_2_">
	<path id="XMLID_34_" class="st0" d="M88.3,26.6c-8.5,0-16.6,0-24.7,0c-0.9,4.6,0.1,6,4.5,6c4.9,0,9.7,0,14.7,0c0,2.1,0,3.8,0,6.4
		c-6.7-0.4-13.4-0.5-20.1-1.3c-3.6-0.4-5.1-3.9-5.4-7.1C57,25.5,57,20.4,57.4,15.4c0.4-4.7,3-7.3,7.7-7.8C70.4,7.1,75.7,7.1,81,7.5
		c4.9,0.4,7.2,3.2,7.3,8.2C88.4,19.1,88.3,22.6,88.3,26.6z M82.5,21.1c0-2,0-3.8,0-5.6c0-1.9-1-2.7-2.8-2.7c-4.3,0-8.6,0-12.8,0
		c-2.3,0-3.5,1.3-3.7,3.5c-0.1,1.5,0,3.1,0,4.7C69.7,21.1,75.9,21.1,82.5,21.1z"/>
	<path id="XMLID_33_" class="st0" d="M99.1,12.8c0-2.2,0-3.8,0-5.5c4.3,0,8.4-0.2,12.6,0.1c3.1,0.2,4.8,2.4,5.3,5.3
		c0.4,2.3,0.4,4.8,0.3,7.2c-0.3,5-2.1,6.6-7.2,6.7c-3.4,0.1-6.8,0-10.2,0c-6,0-6.6,0.7-5.8,7.2c7.6,0,15.3,0,23.1,0
		c0,1.7,0,3.2,0,4.8c-9.3,0-18.5,0-28.1,0c0-3.8-0.2-7.6,0.1-11.3c0.3-4.1,2.6-5.9,6.8-6c4.1-0.1,8.2,0,12.3-0.1c3.4,0,4.1-0.7,4-4
		c0-3.8-0.5-4.2-4-4.3C105.2,12.8,102.2,12.8,99.1,12.8z"/>
	<path id="XMLID_32_" class="st0" d="M136.8,12.8c-6.6,0-12.5,0-18.6,0c0-2,0-3.8,0-5.8c7.6,0,15-0.1,22.5,0.1
		c3,0.1,4.2,2.6,2.8,5.4c-0.7,1.5-1.8,2.9-2.8,4.2c-4.3,6-8.9,11.8-12.8,18c-2.4,3.8-5.2,4.7-9.5,3.7
		C124.4,30,130.4,21.7,136.8,12.8z"/>
</g>
</svg>
