<?xml version="1.0" encoding="utf-8"?>
<!-- Generator: Adobe Illustrator 19.0.0, SVG Export Plug-In . SVG Version: 6.00 Build 0)  -->
<svg version="1.1" id="Layer_1" xmlns="http://www.w3.org/2000/svg" xmlns:xlink="http://www.w3.org/1999/xlink" x="0px" y="0px"
	 viewBox="0 0 247.1 62.1" style="enable-background:new 0 0 247.1 62.1;" xml:space="preserve">
<style type="text/css">
	.st0{fill:#202020;}
</style>
<g id="XMLID_38_">
	<polygon id="XMLID_48_" class="st0" points="45.1,28.2 31.1,22 31.1,15.8 45.1,22 	"/>
	<polygon id="XMLID_47_" class="st0" points="17,28.2 31.1,22 31.1,15.8 17,22 	"/>
	<polygon id="XMLID_46_" class="st0" points="17,37.2 31.1,31.1 31.1,24.9 17,31.1 	"/>
	<polygon id="XMLID_45_" class="st0" points="17,46.3 31.1,40.1 31.1,34 17,40.1 	"/>
	<polygon id="XMLID_44_" class="st0" points="45.1,37.2 31.1,31.1 31.1,24.9 45.1,31.1 	"/>
	<polygon id="XMLID_43_" class="st0" points="45.1,46.3 31.1,40.1 31.1,34 45.1,40.1 	"/>
	<polygon id="XMLID_42_" class="st0" points="21.7,35.2 17,37.2 17,22 21.7,19.9 	"/>
	<polygon id="XMLID_41_" class="st0" points="33.4,40.1 28.7,40.1 28.7,25.9 31.1,24.9 33.4,25.9 	"/>
	<polygon id="XMLID_40_" class="st0" points="45.1,46.3 40.4,44.2 40.4,29 45.1,31.1 	"/>
	<polygon id="XMLID_39_" class="st0" points="33.4,22 28.7,22 28.7,16.8 31.1,15.8 33.4,16.8 	"/>
</g>
<path id="XMLID_35_" class="st0" d="M31.1,0C13.9,0,0,13.9,0,31.1s13.9,31.1,31.1,31.1s31.1-13.9,31.1-31.1S48.2,0,31.1,0z
	 M31.1,59.3c-15.6,0-28.2-12.6-28.2-28.2S15.5,2.8,31.1,2.8s28.2,12.6,28.2,28.2S46.6,59.3,31.1,59.3z"/>
<g id="XMLID_2_">
	<path id="XMLID_33_" d="M82.9,23.6c-1.4,0-2.7,1.1-2.7,2.6c0,1.4,1.8,2.1,3.6,3.1c1.9,1,3.9,2.1,3.9,4.3c0,3-2.3,4.6-5.2,4.6
		c-1.3,0-2.6-0.4-3.6-1.1c-0.4-0.3-0.6-0.6-0.6-0.9c0-0.5,0.2-0.7,0.7-0.7c0.2,0,0.5,0.1,0.7,0.3c0.8,0.5,1.9,0.8,2.8,0.8
		c1.8,0,3.4-0.8,3.4-2.8c0-1.3-1.5-2.1-3.2-2.9c-2.1-1.1-4.4-2.3-4.4-4.5c0-2.8,2.1-4.4,4.7-4.4c1.1,0,2.4,0.3,3.6,1
		c0.4,0.2,0.6,0.6,0.6,1c0,0.4-0.3,0.8-0.7,0.8c-0.3,0-0.5-0.2-0.8-0.4C85.2,23.9,84,23.6,82.9,23.6z"/>
	<path id="XMLID_31_" d="M92.9,23.8h-3.1c-0.6,0-0.8-0.3-0.8-0.8c0-0.5,0.3-0.8,0.8-0.8h7.8c0.5,0,0.8,0.3,0.8,0.8
		c0,0.5-0.3,0.8-0.8,0.8h-3.1V37c0,0.6-0.3,0.9-0.8,0.9c-0.5,0-0.8-0.3-0.8-0.9V23.8z"/>
	<path id="XMLID_28_" d="M107,34.7h-7.3l-0.9,2.4c-0.2,0.5-0.5,0.8-0.9,0.8c-0.5,0-0.7-0.4-0.7-0.7c0-0.1,0-0.3,0.1-0.4l4.8-13.5
		c0.2-0.6,0.7-0.9,1.2-0.9c0.6,0,1,0.3,1.2,0.9l4.9,13.5c0.1,0.1,0.1,0.3,0.1,0.4c0,0.4-0.3,0.7-0.7,0.7c-0.4,0-0.6-0.2-0.8-0.5
		L107,34.7z M100.1,33.1h6.2l-3.1-8.7L100.1,33.1z"/>
	<path id="XMLID_25_" d="M111.5,23.1c0-0.6,0.4-0.8,1.2-0.8h4.9c3.1,0,4.8,2.2,4.8,4.4c0,1.7-1.1,3.5-3.3,4.1l3,5.8
		c0.1,0.3,0.2,0.5,0.2,0.7c0,0.4-0.2,0.7-0.7,0.7c-0.3,0-0.5-0.1-0.7-0.4l-3.4-6.5h-4.4V37c0,0.6-0.3,0.9-0.8,0.9
		c-0.5,0-0.8-0.3-0.8-0.9V23.1z M113.1,23.8v5.7h4.7c2.1,0,3-1.4,3-2.8c0-1.4-1-2.9-3-2.9H113.1z"/>
	<path id="XMLID_23_" d="M127.7,23.8h-3.1c-0.6,0-0.8-0.3-0.8-0.8c0-0.5,0.3-0.8,0.8-0.8h7.8c0.5,0,0.8,0.3,0.8,0.8
		c0,0.5-0.3,0.8-0.8,0.8h-3.1V37c0,0.6-0.3,0.9-0.8,0.9c-0.5,0-0.8-0.3-0.8-0.9V23.8z"/>
	<path id="XMLID_21_" d="M134.9,23.2c0-0.6,0.3-0.9,0.9-0.9s0.8,0.3,0.8,0.9v8.5c0,3.7,2,4.7,4.4,4.7c2.4,0,4.2-1,4.2-4.7v-8.5
		c0-0.6,0.3-0.9,0.9-0.9c0.6,0,0.9,0.3,0.9,0.9v8.7c0,4.7-2.8,6.2-6.1,6.2c-3.3,0-5.9-1.6-5.9-6.2V23.2z"/>
	<path id="XMLID_18_" d="M149.3,23.1c0-0.6,0.3-0.8,0.9-0.8h4.5c2.9,0,5.2,1.9,5.2,4.8c0,2.7-2.3,4.7-5,4.7h-3.9v5.4
		c0,0.5-0.3,0.8-0.8,0.8c-0.5,0-0.8-0.3-0.8-0.8V23.1z M150.8,23.8v6.4h3.8c1.9,0,3.5-1.2,3.5-3.2c0-2-1.6-3.2-3.9-3.2H150.8z"/>
	<path id="XMLID_16_" d="M175.9,30.5c-0.6,0-0.9-0.3-0.9-0.8c0-0.5,0.3-0.8,1-0.8h4.6c1.2,0,1.4,0.9,1.4,1.9c0,4-2.4,7.3-6.3,7.3
		c-4.6,0-6.9-4.3-6.9-8.3c0-4.5,2.4-8.2,7.2-8.2c1.5,0,3.4,0.6,4.7,1.9c0.2,0.2,0.4,0.5,0.4,0.7c0,0.4-0.3,0.9-0.8,0.9
		c-0.2,0-0.6-0.2-0.7-0.3c-1.2-1.1-2.4-1.5-3.6-1.5c-3.6,0-5.4,2.8-5.4,6.5c0,3.2,1.7,6.7,5.2,6.7c3,0,4.6-2.6,4.6-5.7
		c0-0.2,0-0.3-0.1-0.3H175.9z"/>
	<path id="XMLID_13_" d="M192.7,34.7h-7.3l-0.9,2.4c-0.2,0.5-0.5,0.8-0.9,0.8c-0.5,0-0.7-0.4-0.7-0.7c0-0.1,0-0.3,0.1-0.4l4.8-13.5
		c0.2-0.6,0.7-0.9,1.2-0.9c0.6,0,1,0.3,1.2,0.9l4.9,13.5c0.1,0.1,0.1,0.3,0.1,0.4c0,0.4-0.3,0.7-0.7,0.7c-0.4,0-0.6-0.2-0.8-0.5
		L192.7,34.7z M185.9,33.1h6.2l-3.1-8.7L185.9,33.1z"/>
	<path id="XMLID_10_" d="M197.2,23.1c0-0.6,0.4-0.8,1.2-0.8h4.9c3.1,0,4.8,2.2,4.8,4.4c0,1.7-1.1,3.5-3.3,4.1l3,5.8
		c0.1,0.3,0.2,0.5,0.2,0.7c0,0.4-0.2,0.7-0.7,0.7c-0.3,0-0.5-0.1-0.7-0.4l-3.4-6.5h-4.4V37c0,0.6-0.3,0.9-0.8,0.9
		c-0.5,0-0.8-0.3-0.8-0.9V23.1z M198.8,23.8v5.7h4.7c2.1,0,3-1.4,3-2.8c0-1.4-1-2.9-3-2.9H198.8z"/>
	<path id="XMLID_7_" d="M220,34.7h-7.3l-0.9,2.4c-0.2,0.5-0.5,0.8-0.9,0.8c-0.5,0-0.7-0.4-0.7-0.7c0-0.1,0-0.3,0.1-0.4l4.8-13.5
		c0.2-0.6,0.7-0.9,1.2-0.9c0.6,0,1,0.3,1.2,0.9l4.9,13.5c0.1,0.1,0.1,0.3,0.1,0.4c0,0.4-0.3,0.7-0.7,0.7c-0.4,0-0.6-0.2-0.8-0.5
		L220,34.7z M213.2,33.1h6.2l-3.1-8.7L213.2,33.1z"/>
	<path id="XMLID_5_" d="M230.8,30.5c-0.6,0-0.9-0.3-0.9-0.8c0-0.5,0.3-0.8,1-0.8h4.6c1.2,0,1.4,0.9,1.4,1.9c0,4-2.4,7.3-6.3,7.3
		c-4.6,0-6.9-4.3-6.9-8.3c0-4.5,2.4-8.2,7.2-8.2c1.5,0,3.4,0.6,4.7,1.9c0.2,0.2,0.4,0.5,0.4,0.7c0,0.4-0.3,0.9-0.8,0.9
		c-0.2,0-0.6-0.2-0.7-0.3c-1.2-1.1-2.4-1.5-3.6-1.5c-3.6,0-5.4,2.8-5.4,6.5c0,3.2,1.7,6.7,5.2,6.7c3,0,4.6-2.6,4.6-5.7
		c0-0.2,0-0.3-0.1-0.3H230.8z"/>
	<path id="XMLID_3_" d="M238.8,23.2c0-0.6,0.3-0.9,0.9-0.9h6.4c0.5,0,0.8,0.3,0.8,0.8c0,0.5-0.3,0.8-0.8,0.8h-5.7V29h4.7
		c0.5,0,0.8,0.3,0.8,0.8c0,0.5-0.3,0.7-0.8,0.7h-4.7v5.8h5.9c0.6,0,0.9,0.3,0.9,0.8c0,0.5-0.3,0.8-0.9,0.8h-6.6
		c-0.8,0-0.9-0.2-0.9-0.9V23.2z"/>
</g>
</svg>
