<?xml version="1.0" encoding="utf-8"?>
<!-- Generator: Adobe Illustrator 19.2.1, SVG Export Plug-In . SVG Version: 6.00 Build 0)  -->
<svg version="1.1" id="Layer_1" xmlns="http://www.w3.org/2000/svg" xmlns:xlink="http://www.w3.org/1999/xlink" x="0px" y="0px"
	 viewBox="0 0 96 96" style="enable-background:new 0 0 96 96;" xml:space="preserve">
<style type="text/css">
	.st0{fill:#CCCCCC;}
</style>
<g>
	<polygon class="st0" points="70,43.4 47.9,34.8 47.9,26.2 70,34.8 	"/>
	<polygon class="st0" points="25.9,43.4 47.9,34.8 47.9,26.2 25.9,34.8 	"/>
	<polygon class="st0" points="25.9,56.1 47.9,47.5 47.9,38.8 25.9,47.5 	"/>
	<polygon class="st0" points="25.9,68.7 47.9,60.1 47.9,51.5 25.9,60.1 	"/>
	<polygon class="st0" points="70,56.1 47.9,47.5 47.9,38.8 70,47.5 	"/>
	<polygon class="st0" points="70,68.7 47.9,60.1 47.9,51.5 70,60.1 	"/>
	<polygon class="st0" points="33.2,53.2 25.9,56.1 25.9,34.8 33.2,31.9 	"/>
	<polygon class="st0" points="51.6,61.5 47.9,60.1 44.3,61.5 44.3,40.3 47.9,38.8 51.6,40.3 	"/>
	<polygon class="st0" points="70,68.7 62.7,65.8 62.7,44.6 70,47.5 	"/>
	<polygon class="st0" points="51.6,36.2 47.9,34.8 44.3,36.2 44.3,27.6 47.9,26.2 51.6,27.6 	"/>
</g>
<path class="st0" d="M47.9,8.1C26.2,8.1,8.6,25.7,8.6,47.5s17.6,39.3,39.3,39.3s39.3-17.6,39.3-39.3S69.7,8.1,47.9,8.1z M47.9,83.2
	c-19.8,0-35.8-16-35.8-35.8s16-35.8,35.8-35.8s35.8,16,35.8,35.8S67.7,83.2,47.9,83.2z"/>
</svg>
