<?xml version="1.0" encoding="utf-8"?>
<!-- Generator: Adobe Illustrator 19.0.0, SVG Export Plug-In . SVG Version: 6.00 Build 0)  -->
<svg version="1.1" id="Layer_1" xmlns="http://www.w3.org/2000/svg" xmlns:xlink="http://www.w3.org/1999/xlink" x="0px" y="0px"
	 viewBox="371 -70.5 1002 205.5" style="enable-background:new 371 -70.5 1002 205.5;" xml:space="preserve">
<g id="XMLID_1_">
	<path id="XMLID_251_" d="M465.4-47.5h21.8c12.3,0,16.9,1.9,20.5,4.9c5.2,4.3,7.8,10.9,7.8,17.6s-2.8,13.9-7,17.5
		c-4.6,3.9-9.1,5.8-19.4,5.8h-7.4v20.9h-16.3V-47.5z M481.7-16.8h6.9c3.2,0,10.6,0,10.6-8c0-7.8-7.6-7.8-11.2-7.8h-6.3V-16.8z"/>
	<path id="XMLID_254_" d="M517-30.9h14v5.3h0.2c1.3-2.4,3.9-7,12.5-7v15c-6.9,0.2-11.8,1.6-11.8,9.2V19H517V-30.9z"/>
	<path id="XMLID_256_" d="M592.6,3.4c-2.4,5.6-5.9,9.9-10.2,12.8c-4.1,3-9.1,4.5-14.2,4.5c-14.3,0-26.5-11.6-26.5-26.5
		c0-13.9,11-26.8,26.2-26.8c15.2,0,26.4,12.1,26.4,27.3c0,2-0.2,2.8-0.4,4h-37.4c0.9,5.9,5.8,9.4,11.7,9.4c4.6,0,7-2.1,9.1-4.7
		C577.3,3.4,592.6,3.4,592.6,3.4z M579.3-11.5c-0.6-3-3.6-8.5-11.3-8.5s-10.7,5.6-11.3,8.5H579.3z"/>
	<path id="XMLID_259_" d="M617.5,0.4h-25.3v-14.6h25.3V0.4z"/>
	<path id="XMLID_261_" d="M635.1,9.4l-3.5,9.6h-18.3l26.8-66.5h13.4L680,19h-18.4l-3.2-9.6H635.1z M639.8-4.1h13.9l-6.8-22.8h-0.1
		h-0.2L639.8-4.1z"/>
	<path id="XMLID_264_" d="M731.7,0.1C729,11.4,719,20.7,705.5,20.7c-15.1,0-26.7-11.9-26.7-26.7c0-14.7,11.4-26.5,26.4-26.5
		c13.2,0,23.9,8.7,26.5,21h-15.1c-1.6-3.4-4.6-7-10.8-7c-7.1-0.4-11.9,5.5-11.9,12.7c0,7.3,4.8,12.7,11.9,12.7
		c6.2,0,9.2-3.6,10.8-6.7L731.7,0.1L731.7,0.1z"/>
	<path id="XMLID_266_" d="M785.4,0.1c-2.7,11.3-12.7,20.6-26.2,20.6c-15.1,0-26.7-11.9-26.7-26.7c0-14.7,11.4-26.5,26.4-26.5
		c13.2,0,23.9,8.7,26.5,21h-15.1c-1.6-3.4-4.6-7-10.8-7c-7.1-0.4-11.9,5.5-11.9,12.7c0,7.3,4.8,12.7,11.9,12.7
		c6.2,0,9.2-3.6,10.8-6.7L785.4,0.1L785.4,0.1z"/>
	<path id="XMLID_268_" d="M836.8,3.4c-2.4,5.6-5.9,9.9-10.2,12.8c-4.1,3-9.1,4.5-14.2,4.5c-14.3,0-26.5-11.6-26.5-26.5
		c0-13.9,11-26.8,26.2-26.8s26.4,12.1,26.4,27.3c0,2-0.2,2.8-0.4,4h-37.4c0.9,5.9,5.8,9.4,11.7,9.4c4.6,0,7-2.1,9.1-4.7
		C821.5,3.4,836.8,3.4,836.8,3.4z M823.6-11.5c-0.6-3-3.6-8.5-11.3-8.5c-7.7,0-10.7,5.6-11.3,8.5H823.6z"/>
	<path id="XMLID_271_" d="M841.9-47.5h14.9v66.6h-14.9V-47.5z"/>
	<path id="XMLID_273_" d="M910.8,3.4c-2.4,5.6-5.9,9.9-10.2,12.8c-4.1,3-9.1,4.5-14.2,4.5c-14.3,0-26.5-11.6-26.5-26.5
		c0-13.9,11-26.8,26.2-26.8s26.4,12.1,26.4,27.3c0,2-0.2,2.8-0.4,4h-37.4c0.9,5.9,5.8,9.4,11.7,9.4c4.6,0,7-2.1,9.1-4.7
		C895.5,3.4,910.8,3.4,910.8,3.4z M897.6-11.5c-0.6-3-3.6-8.5-11.3-8.5s-10.7,5.6-11.3,8.5H897.6z"/>
	<path id="XMLID_276_" d="M915.8-30.9h14v5.3h0.2c1.3-2.4,3.9-7,12.5-7v15c-6.9,0.2-11.8,1.6-11.8,9.2V19h-14.9V-30.9z"/>
	<path id="XMLID_278_" d="M996,19h-14.9v-5.4h-0.2c-2.5,4.9-8.7,7.1-14.6,7.1c-15.8,0-25.1-12.4-25.1-26.7
		c0-16.4,11.8-26.6,25.1-26.6c8.2,0,12.8,4,14.6,7h0.2v-5.3H996V19z M968.6,6.8c9.4,0,12.5-7.9,12.5-12.8c0-6-4.1-12.7-12.6-12.7
		s-12.3,7.2-12.3,12.9C956.2-1.1,959.6,6.8,968.6,6.8z"/>
	<path id="XMLID_281_" d="M1020.3-30.9h7.2v11.3h-7.2V19h-14.9v-38.6H998v-11.3h7.4v-16.6h14.9L1020.3-30.9L1020.3-30.9z"/>
	<path id="XMLID_283_" d="M1053.6-32.5c18.2,0,26.9,14.3,26.9,26.5s-8.7,26.5-26.9,26.5S1026.7,6.2,1026.7-6
		S1035.5-32.5,1053.6-32.5z M1053.6,6.6c6.5,0,12-5.3,12-12.6s-5.5-12.6-12-12.6s-12,5.3-12,12.6S1047.2,6.6,1053.6,6.6z"/>
	<path id="XMLID_286_" d="M1084-30.9h14v5.3h0.2c1.3-2.4,3.9-7,12.5-7v15c-6.9,0.2-11.8,1.6-11.8,9.2V19H1084V-30.9z"/>
	<path id="XMLID_288_" d="M1135.3-47.5h36.4v14.9h-20.1v11.3h19.3v14.9h-19.3V19h-16.3V-47.5L1135.3-47.5z"/>
	<path id="XMLID_290_" d="M1199.8-32.5c18.2,0,26.9,14.3,26.9,26.5s-8.7,26.5-26.9,26.5c-18.2,0-26.9-14.3-26.9-26.5
		C1172.9-18.2,1181.6-32.5,1199.8-32.5z M1199.8,6.6c6.5,0,12-5.3,12-12.6s-5.5-12.6-12-12.6s-12,5.3-12,12.6S1193.3,6.6,1199.8,6.6
		z"/>
	<path id="XMLID_293_" d="M1230.1-30.9h14v5.3h0.2c1.3-2.4,3.9-7,12.5-7v15c-6.9,0.2-11.8,1.6-11.8,9.2V19h-14.9V-30.9z"/>
	<path id="XMLID_295_" d="M376.6,52.5h14.7L417,94.3l0.2-0.2l-0.8-41.6h16.3v66.6H418l-25.4-40.5l-0.2,0.1l0.4,40.4h-16.2V52.5z"/>
	<path id="XMLID_297_" d="M463.9,67.5c18.2,0,26.9,14.3,26.9,26.5s-8.7,26.5-26.9,26.5c-18.2,0-26.9-14.2-26.9-26.5
		C437,81.8,445.7,67.5,463.9,67.5z M463.9,106.6c6.5,0,12-5.3,12-12.6s-5.5-12.6-12-12.6s-12,5.3-12,12.6S457.4,106.6,463.9,106.6z"
		/>
	<path id="XMLID_300_" d="M494.3,69.1h13.9v5.3h0.2c1.5-2.4,4.7-7,13.6-7c4.8,0,10.1,2,12.8,4.3s5.8,6.3,5.8,16.1V119h-14.9V91.7
		c0-3.5,0-10.3-7.8-10.3c-8.5,0-8.5,7.4-8.5,10.4V119h-14.9V69.1H494.3z"/>
	<path id="XMLID_302_" d="M566.1,100.4h-25.3V85.7h25.3V100.4z"/>
	<path id="XMLID_304_" d="M575.2,67.4h-13.1V52.5h43.2v14.9h-13v51.7h-17L575.2,67.4L575.2,67.4z"/>
	<path id="XMLID_306_" d="M650.3,103.4c-2.4,5.6-5.9,9.9-10.2,12.8c-4.1,3-9.1,4.5-14.2,4.5c-14.3,0-26.5-11.6-26.5-26.5
		c0-13.9,11-26.8,26.2-26.8S652,79.5,652,94.7c0,2-0.2,2.8-0.4,4h-37.4c0.9,5.9,5.8,9.4,11.7,9.4c4.6,0,7-2.1,9.1-4.7H650.3z
		 M637,88.5c-0.6-3-3.6-8.5-11.3-8.5s-10.7,5.6-11.3,8.5H637z"/>
	<path id="XMLID_309_" d="M705.8,100.1c-2.7,11.3-12.7,20.6-26.2,20.6c-15.1,0-26.7-11.9-26.7-26.7c0-14.7,11.4-26.5,26.4-26.5
		c13.2,0,23.9,8.7,26.5,21h-15.1c-1.6-3.4-4.6-7-10.8-7C672.8,81.1,668,87,668,94.2c0,7.3,4.8,12.7,11.9,12.7
		c6.2,0,9.2-3.6,10.8-6.7h15.1V100.1z"/>
	<path id="XMLID_311_" d="M709,52.5h15v21.2h0.2c2.5-4.5,7.6-6.3,12.9-6.3c4.8,0,10.4,1.7,13.6,5.5c4.2,4.9,4.7,9.4,4.7,18.3v27.9
		h-14.9V91.9c0-2.4,0-10.4-8-10.4c-8.4,0-8.4,7.5-8.4,9.9v27.7H709V52.5z"/>
	<path id="XMLID_313_" d="M761,69.1h13.9v5.3h0.2c1.5-2.4,4.7-7,13.6-7c4.8,0,10.1,2,12.8,4.3c2.7,2.3,5.8,6.3,5.8,16.1V119h-14.9
		V91.7c0-3.5,0-10.3-7.8-10.3c-8.5,0-8.5,7.4-8.5,10.4V119H761V69.1z"/>
	<path id="XMLID_315_" d="M827.8,63.8h-14.9V52.5h14.9V63.8z M827.8,119h-14.9V69.1h14.9V119z"/>
	<path id="XMLID_318_" d="M884.2,100.1c-2.7,11.3-12.7,20.6-26.2,20.6c-15.1,0-26.7-11.9-26.7-26.7c0-14.7,11.4-26.5,26.4-26.5
		c13.2,0,23.9,8.7,26.5,21H869c-1.6-3.4-4.6-7-10.8-7c-7.1-0.4-11.9,5.5-11.9,12.7c0,7.3,4.8,12.7,11.9,12.7c6.2,0,9.2-3.6,10.8-6.7
		h15.2V100.1z"/>
	<path id="XMLID_320_" d="M939.9,119H925v-5.4h-0.2c-2.5,4.9-8.7,7.1-14.6,7.1c-15.8,0-25.1-12.4-25.1-26.7
		c0-16.4,11.8-26.6,25.1-26.6c8.2,0,12.8,4,14.6,7h0.2v-5.3h14.9V119z M912.4,106.8c9.4,0,12.5-7.9,12.5-12.8
		c0-6-4.1-12.7-12.6-12.7S900,88.5,900,94.2C900,98.9,903.4,106.8,912.4,106.8z"/>
	<path id="XMLID_323_" d="M945.8,52.5h14.9v66.6h-14.9V52.5z"/>
	<path id="XMLID_325_" d="M990.1,52.5h36.4v14.9h-20.1v11.3h19.3v14.9h-19.3V119h-16.3L990.1,52.5L990.1,52.5z"/>
	<path id="XMLID_327_" d="M1054.6,67.5c18.2,0,26.9,14.3,26.9,26.5s-8.7,26.5-26.9,26.5s-26.9-14.3-26.9-26.5
		S1036.4,67.5,1054.6,67.5z M1054.6,106.6c6.5,0,12-5.3,12-12.6s-5.5-12.6-12-12.6s-12,5.3-12,12.6
		C1042.7,101.3,1048.1,106.6,1054.6,106.6z"/>
	<path id="XMLID_330_" d="M1131.3,119h-14.1v-5.3h-0.2c-3.1,6.4-9.2,6.9-13,6.9c-3.1,0-10.3-0.7-14.7-6.3c-4-5-4.5-8.5-4.5-15.4V69
		h14.9v27.6c0,3.4,0,10,8,10c4.3,0,8.5-2.3,8.5-10.2V69h14.9v50H1131.3z"/>
	<path id="XMLID_332_" d="M1137.2,69.1h14v5.3h0.2c1.5-2.4,4.7-7,13.6-7c4.8,0,10.1,2,12.8,4.3c2.7,2.3,5.8,6.3,5.8,16.1V119h-14.9
		V91.7c0-3.5,0-10.3-7.8-10.3c-8.5,0-8.5,7.4-8.5,10.4V119h-14.9V69.1H1137.2z"/>
	<path id="XMLID_334_" d="M1241.1,119h-14.2v-5.4h-0.2c-1.3,2.1-4.9,7-14.9,7c-15.1,0-25-11.7-25-26.7c0-16.9,12.1-26.5,24.7-26.5
		c8.8,0,13,4.3,14.7,5.9V52.5h14.9V119z M1214.2,106.7c9.4,0,12.8-7.7,12.8-12.9c0-6-4.3-12.5-12.6-12.5c-8.6,0-12.7,6.7-12.7,12.5
		C1201.7,101.6,1207.2,106.7,1214.2,106.7z"/>
	<path id="XMLID_337_" d="M1295.1,103.4c-2.4,5.6-5.9,9.9-10.2,12.8c-4.1,3-9.1,4.5-14.2,4.5c-14.3,0-26.5-11.6-26.5-26.5
		c0-13.9,11-26.8,26.2-26.8c15.2,0,26.4,12.1,26.4,27.3c0,2-0.2,2.8-0.4,4H1259c0.9,5.9,5.8,9.4,11.7,9.4c4.6,0,7-2.1,9.1-4.7
		H1295.1z M1281.9,88.5c-0.6-3-3.6-8.5-11.3-8.5c-7.7,0-10.7,5.6-11.3,8.5H1281.9z"/>
	<path id="XMLID_340_" d="M1300.1,69.1h14v5.3h0.2c1.3-2.4,3.9-7,12.5-7v15c-6.9,0.2-11.8,1.6-11.8,9.2V119h-14.9V69.1z"/>
	<path id="XMLID_342_" d="M1350.9,83.1c-0.1-1.1-0.3-3.8-4.7-3.8c-3.1,0-4.2,2-4.2,3.3c0,2.7,3.7,4.2,7.6,5.4
		c8.5,2.3,17.5,4.9,17.5,15.7c0,10.5-9.3,17-20.3,17c-7.6,0-19-3.4-20.3-16.6h14.8c0.6,4.6,5,4.6,5.7,4.6c2.5,0,5.2-1.4,5.2-3.9
		c0-3.9-3.7-4.3-13.2-8c-6.5-2.1-11.9-6.3-11.9-13c0-9.9,9-16.5,19.3-16.5c6.6,0,17.9,2.6,19.2,15.8H1350.9z"/>
</g>
</svg>
