<?xml version="1.0" encoding="utf-8"?>
<!-- Generator: Adobe Illustrator 19.2.1, SVG Export Plug-In . SVG Version: 6.00 Build 0)  -->
<svg version="1.1" id="Layer_1" xmlns="http://www.w3.org/2000/svg" xmlns:xlink="http://www.w3.org/1999/xlink" x="0px" y="0px"
	 viewBox="0 0 200 48" style="enable-background:new 0 0 200 48;" xml:space="preserve">
<style type="text/css">
	.st0{fill:#FFFFFF;}
</style>
<path class="st0" d="M71.8,15H57.1v3.9h5.1v13.4h4.5V18.9h5.1V15L71.8,15z M73.1,32.2h14v-3.9h-9.5v-3.3H86v-3.5h-8.4v-3h9.2V15
	H73.1L73.1,32.2L73.1,32.2z M103.1,21.3c-0.1-4-4-6.3-7.5-6.3c-5,0-8.2,3.8-8.2,8.6s3.2,8.6,8.2,8.6c4.2,0,7.3-2.5,7.5-6.8h-4.3
	c-0.2,1.9-1.3,3.1-3.3,3.1c-2.8,0-3.8-2.5-3.8-4.9s1.1-4.9,3.8-4.9c1.8,0,3.1,0.9,3.3,2.5L103.1,21.3L103.1,21.3z M104.4,32.2h4.5
	v-7.1h5.9v7.1h4.5V15h-4.5v6.3h-5.9V15h-4.5L104.4,32.2L104.4,32.2z M121.4,32.2h1.6V15h-1.6V32.2z M125.2,32.2h1.6V17.7h0l10,14.6
	h1.8V15h-1.6v14.6h0L127,15h-1.8L125.2,32.2L125.2,32.2z M140.1,32.2h4.6l1.1-3.1h6l1.1,3.1h4.7L151.1,15h-4.6L140.1,32.2
	L140.1,32.2z M148.8,19.8L148.8,19.8l2,6h-3.9L148.8,19.8L148.8,19.8z M156.7,26.3c0,4.2,3.4,5.9,7.2,5.9c3.6,0,7.2-1.3,7.2-5.5
	c0-3-2.4-4.1-4.8-4.8c-2.4-0.7-4.8-0.9-4.8-2.2c0-1.1,1.2-1.4,2.1-1.4c1.3,0,2.7,0.5,2.7,2h4.3c0-3.7-3.3-5.3-6.6-5.3
	c-3.1,0-6.7,1.4-6.7,5c0,3,2.5,4.1,4.8,4.8c2.4,0.7,4.7,0.9,4.7,2.4c0,1.2-1.3,1.7-2.6,1.7c-1.8,0-3-0.6-3.1-2.6L156.7,26.3
	L156.7,26.3z M172,32.2h4.5V15H172V32.2z M177.4,32.2h4.6l1.1-3.1h6l1.1,3.1h4.7L188.5,15h-4.6L177.4,32.2z M186.1,19.8L186.1,19.8
	l2,6h-3.9L186.1,19.8L186.1,19.8z"/>
<path id="SVGID_1_" class="st0" d="M37.9,19.7l2.1,1.2c0.4,0.2,0.9-0.2,0.6-0.6l-2.2-3.7c-0.2-0.3-0.6-0.3-0.8,0l-14,24.2
	c-0.4,0.6-1.2,0.6-1.6,0l-4.6-8c-0.2-0.3-0.2-0.6-0.2-0.9v-7c0-0.5-0.3-1-0.7-1.4L5.4,14.1c-0.6-0.5-0.3-1.6,0.6-1.6h19
	c0.3,0,0.6,0.1,0.9,0.2l4.7,2.7c0.2,0.1,0.3,0.4,0.2,0.6l-2.1,3.6c-0.1,0.2-0.4,0.3-0.6,0.2l-3.5-2c-0.3-0.2-0.6-0.2-0.9-0.2h-5.1
	c-0.4,0-0.6,0.5-0.3,0.8l3.3,2.8c0.4,0.3,0.6,0.8,0.6,1.4v9c0,0.5,0.7,0.6,0.9,0.2L37.3,7.2c0.3-0.6,1.2-0.6,1.6,0l14.6,25.3
	c0.5,0.8-0.4,1.7-1.2,1.2L35.4,24c-0.2-0.1-0.3-0.4-0.2-0.6l2.1-3.6C37.4,19.6,37.7,19.5,37.9,19.7L37.9,19.7z"/>
</svg>
